<svg width="345" height="468" viewBox="0 0 345 468" fill="none" xmlns="http://www.w3.org/2000/svg">
<path fill-rule="evenodd" clip-rule="evenodd" d="M241.082 0.654704C239.66 1.01512 237.782 1.79039 236.911 2.37768C236.039 2.96497 235.102 3.44466 234.829 3.44466C234.364 3.44466 230.5 5.48396 229.114 6.46019C228.772 6.70133 227.682 7.34048 226.691 7.88109C225.699 8.42301 224.671 9.16198 224.405 9.52499C224.138 9.88929 223.616 10.1862 223.245 10.1862C222.872 10.1862 222.136 10.5297 221.609 10.9498C221.081 11.3685 219.804 12.3603 218.77 13.1537C211.952 18.381 204.302 25.0966 201.396 28.4025C200.802 29.0793 199.508 30.5404 198.519 31.6488C197.531 32.7573 196.723 33.9824 196.723 34.3714C196.723 34.7603 196.473 35.0779 196.167 35.0779C195.614 35.0779 194.271 37.0109 191.969 41.1142C191.308 42.2952 190.47 43.4167 190.11 43.6085C189.749 43.7991 189.454 44.3734 189.454 44.8842C189.454 45.395 188.773 46.9106 187.94 48.2524C187.107 49.5929 186.425 51.115 186.425 51.6335C186.425 52.1534 185.879 53.6365 185.209 54.9304C184.542 56.2242 183.834 58.4127 183.638 59.7934C183.441 61.1741 182.829 63.3534 182.279 64.6369C180.803 68.0763 180.822 91.6807 182.305 95.4923C182.861 96.9184 183.503 99.3687 183.731 100.937C183.962 102.506 184.661 104.907 185.287 106.272C186.728 109.416 186.73 111.555 185.293 113.303C184.67 114.06 183.957 115.263 183.707 115.976C183.457 116.689 182.903 117.623 182.476 118.05C182.049 118.478 181.357 119.82 180.938 121.032C180.52 122.244 179.982 123.236 179.746 123.236C179.508 123.236 178.955 124.345 178.518 125.699C177.527 128.762 175.05 133.079 174.108 133.383C173.72 133.509 162.09 133.96 148.264 134.384C134.439 134.808 121.9 135.372 120.401 135.637C118.902 135.901 113.723 136.386 108.892 136.713C104.061 137.041 98.4736 137.631 96.4747 138.023C94.4758 138.416 90.5234 138.896 87.6916 139.089C84.8598 139.282 81.6207 139.762 80.4941 140.156C79.3674 140.55 76.2328 141.09 73.5282 141.355C70.8236 141.621 67.6572 142.181 66.4911 142.599C65.3251 143.017 62.7356 143.528 60.7367 143.736C58.7378 143.942 56.33 144.447 55.3851 144.86C54.4417 145.271 52.0324 145.832 50.0305 146.108C48.03 146.384 45.804 146.934 45.0847 147.331C44.3654 147.727 42.686 148.215 41.3534 148.415C40.0208 148.614 38.5216 149.069 38.0219 149.424C37.5221 149.78 35.6822 150.357 33.9332 150.707C32.1842 151.057 30.7532 151.544 30.7532 151.789C30.7532 152.035 29.5947 152.501 28.1788 152.824C26.7629 153.147 25.1956 153.716 24.6959 154.088C24.1961 154.461 22.8332 155.135 21.6672 155.585C20.5012 156.036 19.002 156.695 18.3357 157.05C11.1851 160.862 11.8362 160.438 7.30387 164.245C3.4363 167.494 0.987632 170.966 0.380389 174.057C-0.154167 176.776 0.851345 195.937 1.72511 199.695C2.0522 201.105 2.60948 206.005 2.96383 210.586C3.46356 217.068 3.84364 219.203 4.67652 220.221C5.26559 220.939 5.93038 222.019 6.15299 222.62C6.88592 224.596 17.7239 232.656 19.6501 232.656C20.003 232.656 20.9419 233.088 21.7369 233.614C22.5319 234.141 23.9781 234.74 24.9503 234.943C25.924 235.147 27.3913 235.765 28.2121 236.319C29.0329 236.871 30.1489 237.323 30.6926 237.323C31.2347 237.323 32.6612 237.773 33.8605 238.324C35.0599 238.874 37.0997 239.492 38.3944 239.696C39.6892 239.901 41.6971 240.501 42.8586 241.03C44.0201 241.558 45.7131 241.991 46.6217 241.991C47.5303 241.991 49.5959 242.437 51.2101 242.981C52.8244 243.526 55.4911 244.14 57.1387 244.345C58.7848 244.551 61.085 245.03 62.251 245.409C63.417 245.788 66.6456 246.354 69.4259 246.668C72.2047 246.982 75.203 247.477 76.0889 247.768C76.9733 248.059 80.2866 248.523 83.4515 248.8C86.6165 249.076 90.7309 249.637 92.5935 250.048C94.4561 250.458 99.2262 250.936 103.194 251.112C107.161 251.287 112.068 251.746 114.097 252.13C127.986 254.757 216.05 254.706 230.834 252.063C233.106 251.657 236.786 251.312 239.012 251.297C241.239 251.281 245.378 250.939 248.21 250.537C251.042 250.135 255.812 249.541 258.81 249.22C261.808 248.897 266.442 248.204 269.107 247.682C271.773 247.158 275.452 246.57 277.285 246.374C279.117 246.178 281.298 245.727 282.131 245.37C282.963 245.015 285.097 244.565 286.87 244.372C288.645 244.178 291.45 243.562 293.102 243.004C294.755 242.447 296.851 241.991 297.76 241.991C298.668 241.991 300.362 241.558 301.523 241.03C302.684 240.501 304.676 239.903 305.949 239.702C307.223 239.501 309.131 238.884 310.189 238.332C311.248 237.78 312.691 237.326 313.395 237.325C314.099 237.325 315.37 236.857 316.216 236.286C317.064 235.716 317.979 235.249 318.25 235.249C319.213 235.249 327.56 231.462 327.56 231.025C327.56 230.782 327.958 230.582 328.446 230.582C329.377 230.582 338.463 223.398 338.463 222.662C338.463 222.427 339.033 221.254 339.729 220.056C340.777 218.25 341.091 216.322 341.557 208.802C341.867 203.81 342.413 198.093 342.769 196.096C344.424 186.809 344.695 172.456 343.229 171.681C342.929 171.522 342.304 170.612 341.839 169.659C341.374 168.705 340.491 167.453 339.879 166.877C336.737 163.917 334.681 162.266 332.679 161.092C331.463 160.379 329.956 159.393 329.33 158.9C328.705 158.408 327.301 157.652 326.211 157.22C325.121 156.79 322.593 155.628 320.594 154.64C318.595 153.652 316.551 152.833 316.051 152.817C315.552 152.803 313.801 152.208 312.163 151.496C310.524 150.784 308.739 150.202 308.195 150.202C307.651 150.202 306.934 149.968 306.6 149.682C306.266 149.396 304.387 148.803 302.424 148.367C300.463 147.928 298.57 147.367 298.217 147.119C297.864 146.872 295.997 146.419 294.066 146.115C292.136 145.811 289.682 145.219 288.615 144.801C287.547 144.383 285.038 143.88 283.039 143.684C281.04 143.489 278.693 143.019 277.822 142.64C276.952 142.262 273.843 141.696 270.914 141.385C267.985 141.074 265.122 140.605 264.551 140.343C263.981 140.082 260.956 139.61 257.83 139.297C254.705 138.982 250.784 138.49 249.118 138.204C247.453 137.917 241.865 137.357 236.701 136.959C231.537 136.561 225.949 135.978 224.283 135.663C222.618 135.346 214.148 134.887 205.462 134.64C184.952 134.058 184.425 133.898 187.331 129.13C187.828 128.313 188.237 127.267 188.24 126.807C188.241 126.346 188.753 125.413 189.375 124.732C189.998 124.052 190.697 122.753 190.929 121.846C191.159 120.939 191.722 119.93 192.18 119.606C192.637 119.282 193.178 118.362 193.384 117.562C193.78 116.015 197.288 113.276 199.714 112.616C200.516 112.398 201.722 111.781 202.394 111.245C203.065 110.71 203.929 110.272 204.314 110.272C204.7 110.272 205.509 109.805 206.112 109.235C206.714 108.664 207.446 108.197 207.735 108.197C209.578 108.197 227.938 93.9832 231.997 89.4146C232.574 88.7637 233.869 87.3247 234.875 86.2162C235.879 85.1078 236.701 83.9747 236.701 83.6985C236.701 83.4224 237.382 82.5032 238.215 81.6553C239.048 80.8074 239.73 79.8105 239.73 79.4397C239.73 79.0689 240.111 78.4946 240.579 78.1627C241.046 77.8308 241.607 76.9453 241.828 76.1947C242.048 75.4453 242.755 74.2565 243.402 73.5538C244.047 72.8512 244.575 71.9138 244.575 71.4717C244.575 71.0297 245.075 69.7203 245.685 68.5599C247.562 64.9973 250.048 57.7346 250.047 55.8211C250.047 54.8228 250.466 52.6059 250.981 50.8946C252.46 45.9707 252.786 32.2698 251.564 26.2621C251.014 23.5525 250.328 19.5504 250.039 17.3685C249.751 15.1879 249.112 12.7337 248.619 11.9169C248.125 11.1002 247.531 9.35126 247.301 8.03018C247.069 6.70911 246.156 4.36254 245.273 2.81458L243.667 0L241.082 0.654704ZM238.991 12.3901C239.333 12.7467 240.057 14.9052 240.599 17.187C241.142 19.4687 241.839 22.269 242.146 23.4099C243.27 27.578 242.888 49.1132 241.63 52.5125C241.009 54.1901 240.307 56.7286 240.069 58.1547C239.829 59.5807 239.248 61.2648 238.774 61.8962C238.3 62.5276 237.912 63.4584 237.912 63.9627C237.912 64.7834 235.632 69.3417 234.202 71.3784C233.902 71.8062 233.118 73.0897 232.461 74.2306C228.72 80.718 218.521 91.0442 210.694 96.2701C209.626 96.9832 208.241 97.962 207.615 98.4469C206.99 98.9305 205.647 99.6954 204.629 100.145C203.613 100.595 202.78 101.168 202.78 101.418C202.78 101.669 202.031 102.134 201.114 102.454C200.198 102.773 198.702 103.438 197.787 103.931C195.37 105.235 194.191 104.36 193.34 100.633C192.954 98.946 192.263 96.7498 191.804 95.7516C190.225 92.3212 190.634 66.7255 192.331 62.7091C193.081 60.9355 193.696 58.952 193.697 58.3012C193.7 57.6503 194.109 56.4485 194.606 55.6318C195.104 54.815 195.511 53.8686 195.511 53.5302C195.511 52.3077 201.393 42.0748 203.234 40.0939C203.984 39.2875 204.597 38.2957 204.597 37.8899C204.597 37.4841 204.824 37.1522 205.102 37.1522C205.379 37.1522 206.507 35.9608 207.608 34.5062C210.939 30.1035 224.832 17.9648 226.538 17.9648C226.797 17.9648 227.486 17.6083 228.069 17.174C231.531 14.5915 232.683 13.8162 233.062 13.8162C233.295 13.8162 234.116 13.3495 234.884 12.7791C236.477 11.5967 238.085 11.4437 238.991 12.3901ZM170.982 142.761C171.632 143.316 171.836 143.998 171.567 144.705C171.338 145.304 170.89 147.195 170.572 148.906C170.252 150.617 169.609 153.768 169.139 155.907C168.67 158.046 168.131 160.669 167.942 161.734C167.44 164.547 166.627 164.721 153.907 164.735C147.639 164.742 141.42 164.964 140.087 165.228C138.755 165.494 133.439 165.962 128.275 166.27C109.389 167.398 96.9139 168.636 88.9031 170.179C86.7376 170.597 82.9806 171.172 80.5531 171.46C78.1256 171.748 75.1621 172.334 73.9673 172.762C72.7725 173.188 71.0053 173.538 70.0407 173.538C69.0746 173.538 66.3352 174.122 63.9516 174.835C61.5681 175.548 59.0513 176.133 58.3592 176.134C57.6687 176.136 56.3921 176.455 55.5244 176.843C54.6567 177.231 52.5518 177.833 50.8482 178.183C49.1446 178.534 46.7292 179.265 45.4829 179.809C44.2366 180.354 42.8647 180.798 42.4346 180.798C42.0045 180.798 40.6341 181.265 39.3908 181.836C38.1491 182.406 36.8013 182.873 36.397 182.873C35.9927 182.873 34.3815 183.456 32.8157 184.169C31.2483 184.882 29.4781 185.466 28.8814 185.466C28.2848 185.466 27.6276 185.699 27.4216 185.983C26.7871 186.863 20.2226 189.326 18.9414 189.166C17.0213 188.925 10.8232 183.395 10.1508 181.323C8.59256 176.523 9.8328 173.177 14.6726 169.132C17.8738 166.456 18.7764 165.915 23.4844 163.841C24.6504 163.327 25.7407 162.786 25.9073 162.638C26.6463 161.979 34.2709 159.052 36.0109 158.758C37.0709 158.579 38.2627 158.098 38.6594 157.688C39.0562 157.278 39.9012 156.944 40.5372 156.944C41.1732 156.944 43.2524 156.392 45.1574 155.716C47.0624 155.041 49.7443 154.343 51.1162 154.166C52.4882 153.988 54.3781 153.502 55.3154 153.084C56.2528 152.668 58.5379 152.17 60.393 151.977C62.248 151.784 64.4468 151.339 65.2797 150.989C66.1125 150.639 68.9746 150.067 71.6398 149.72C74.305 149.371 77.8304 148.754 79.4734 148.348C81.1164 147.941 83.3425 147.609 84.4207 147.609C85.5004 147.609 89.8071 147.026 93.9927 146.313C98.1783 145.6 103.622 145.016 106.089 145.016C108.557 145.016 112.719 144.681 115.337 144.27C122.403 143.161 128.033 142.829 146.447 142.435C155.609 142.238 164.652 142.04 166.544 141.992C169.035 141.928 170.26 142.141 170.982 142.761ZM213.986 142.937C219.65 143.208 225.783 143.685 227.615 143.997C229.447 144.309 234.354 144.777 238.518 145.039C242.682 145.299 248.679 145.982 251.844 146.554C255.009 147.127 258.722 147.599 260.097 147.603C261.471 147.607 263.709 147.945 265.069 148.356C266.43 148.767 269.616 149.351 272.15 149.653C274.683 149.955 277.27 150.436 277.897 150.723C278.523 151.011 281.128 151.588 283.683 152.007C286.237 152.426 288.638 152.986 289.016 153.252C289.393 153.517 291.065 153.898 292.731 154.098C294.397 154.298 296.592 154.869 297.612 155.367C298.629 155.865 300.537 156.443 301.852 156.652C303.164 156.861 305.057 157.449 306.057 157.962C307.056 158.474 308.896 159.048 310.146 159.237C311.395 159.428 312.417 159.788 312.417 160.037C312.417 160.286 313.78 160.879 315.446 161.352C317.111 161.825 318.474 162.428 318.474 162.69C318.474 162.952 318.829 163.167 319.262 163.167C321.5 163.167 330.271 169.117 332.875 172.403C338.981 180.105 329.209 191.459 320.803 186.428C319.919 185.899 318.801 185.466 318.32 185.466C317.838 185.466 316.162 184.882 314.595 184.169C313.029 183.456 311.281 182.873 310.71 182.873C310.139 182.873 308.664 182.41 307.433 181.845C306.201 181.279 304.025 180.665 302.597 180.479C301.169 180.294 299.591 179.852 299.091 179.498C298.591 179.145 297.092 178.702 295.759 178.514C294.427 178.325 291.565 177.731 289.399 177.193C281.295 175.18 275.661 173.995 272.136 173.562C270.137 173.317 267.75 172.865 266.833 172.561C265.915 172.256 262.644 171.748 259.564 171.433C256.484 171.118 253.01 170.558 251.844 170.19C250.678 169.82 247.271 169.352 244.273 169.149C241.274 168.945 236.913 168.438 234.581 168.022C232.249 167.604 226.252 167.038 221.255 166.763C216.258 166.487 210.125 166.023 207.626 165.732C205.127 165.442 197.768 165.071 191.271 164.908C184.775 164.746 178.954 164.383 178.334 164.101C177.049 163.515 177.339 158.343 178.836 155.21C179.266 154.309 179.815 151.94 180.056 149.943C180.501 146.247 181.013 144.948 182.659 143.331C183.759 142.253 196.381 142.093 213.986 142.937ZM197.934 173.27C203.431 173.418 209.236 173.768 210.832 174.047C212.429 174.325 218.312 174.788 223.906 175.076C229.502 175.362 235.146 175.917 236.45 176.309C237.753 176.699 241.538 177.187 244.857 177.393C248.176 177.597 251.784 178.085 252.875 178.475C253.966 178.865 257.458 179.432 260.635 179.735C263.812 180.039 266.883 180.504 267.457 180.767C268.885 181.425 273.812 182.353 275.887 182.357C276.823 182.359 278.355 182.703 279.293 183.122C280.23 183.54 282.411 184.033 284.139 184.216C285.866 184.4 288.473 184.989 289.931 185.527C291.389 186.063 293.161 186.508 293.868 186.514C294.575 186.521 296.315 186.977 297.737 187.53C299.158 188.081 301.338 188.686 302.583 188.873C303.826 189.059 305.415 189.517 306.111 189.889C306.808 190.262 308.443 190.819 309.746 191.127C313.267 191.961 313.851 192.415 313.398 193.957C313.009 195.285 310.345 196.874 308.507 196.874C307.991 196.874 306.551 197.341 305.309 197.91C304.067 198.481 302.091 199.096 300.919 199.281C299.747 199.465 298.251 199.931 297.593 200.319C296.936 200.707 295.891 201.023 295.272 201.023C294.653 201.023 292.192 201.584 289.804 202.269C287.416 202.955 284.001 203.666 282.215 203.851C280.43 204.035 278.386 204.501 277.672 204.889C276.959 205.275 274.356 205.759 271.888 205.961C269.419 206.165 266.479 206.66 265.352 207.063C264.225 207.466 260.249 208.032 256.514 208.319C252.78 208.607 249.236 209.074 248.641 209.358C248.046 209.64 244.503 210.107 240.767 210.394C237.031 210.681 231.794 211.153 229.129 211.444C211.727 213.339 178.403 214.112 177.623 212.638C177.336 212.096 176.996 203.331 176.865 193.159C176.585 171.144 176.164 172.436 183.504 172.788C185.944 172.904 192.437 173.122 197.934 173.27ZM166.436 173.527C167.613 174.165 168.201 209.624 167.075 212.119L166.398 213.623L149.911 213.243C140.843 213.033 130.426 212.668 126.761 212.428C120.262 212.004 117.869 211.777 102.229 210.102C98.0647 209.656 92.4769 209.058 89.8117 208.773C87.1465 208.488 83.3304 207.899 81.3315 207.466C79.3326 207.033 75.1788 206.371 72.1002 205.994C69.0216 205.616 66.1383 205.048 65.6931 204.731C65.2464 204.414 63.0991 203.94 60.9215 203.675C58.7424 203.411 56.174 202.851 55.214 202.43C54.2539 202.008 52.2414 201.497 50.7422 201.294C49.243 201.09 47.4712 200.631 46.8049 200.274C46.1386 199.916 44.6349 199.471 43.4628 199.286C42.2907 199.099 40.3146 198.481 39.0728 197.91C37.8311 197.341 36.2001 196.867 35.449 196.857C30.2761 196.795 31.9752 192.562 37.719 191.206C39.0516 190.893 40.6704 190.288 41.317 189.866C41.9652 189.442 42.9192 189.088 43.4371 189.079C43.9565 189.071 45.7449 188.489 47.4107 187.788C49.0764 187.086 50.8815 186.511 51.4221 186.508C51.9627 186.505 53.5982 186.059 55.0565 185.517C56.5148 184.976 58.9347 184.365 60.4338 184.163C61.933 183.959 63.4686 183.579 63.8456 183.319C64.2242 183.059 66.6244 182.503 69.1791 182.084C71.7337 181.666 74.3475 181.084 74.988 180.791C75.6271 180.498 78.265 180.028 80.8484 179.748C83.4319 179.467 86.6407 178.889 87.9809 178.464C89.3211 178.037 93.1432 177.477 96.4747 177.219C99.8062 176.962 103.622 176.498 104.955 176.188C106.288 175.88 112.148 175.381 117.978 175.08C123.808 174.78 129.123 174.389 129.79 174.211C133.523 173.213 164.777 172.63 166.436 173.527ZM16.2035 197.357C19.8591 199.406 28.3317 203.097 29.3796 203.097C29.7204 203.097 30.3201 203.429 30.7138 203.835C31.1075 204.241 32.4598 204.722 33.7197 204.903C34.9811 205.086 36.8044 205.597 37.7735 206.04C38.7427 206.482 40.8991 207.149 42.5648 207.521C44.2306 207.893 46.6838 208.557 48.0164 208.996C49.349 209.434 51.2025 209.804 52.1354 209.815C53.0682 209.828 54.5916 210.176 55.5214 210.587C56.4512 210.999 59.0952 211.611 61.397 211.948C63.6987 212.285 66.0717 212.779 66.6713 213.046C67.2695 213.313 70.5268 213.884 73.9098 214.315C77.2928 214.747 80.5274 215.314 81.0968 215.574C81.6662 215.836 85.087 216.276 88.6987 216.553C92.3088 216.829 96.6261 217.396 98.2919 217.812C99.9576 218.228 104.455 218.725 108.286 218.914C112.118 219.103 117.842 219.596 121.007 220.009C135.084 221.846 214.027 222.015 220.952 220.222C222.118 219.92 227.433 219.431 232.764 219.137C238.094 218.841 244.209 218.241 246.353 217.802C248.496 217.362 252.806 216.796 255.928 216.543C259.049 216.29 262.77 215.744 264.195 215.331C265.62 214.916 268.533 214.413 270.672 214.213C272.81 214.013 275.24 213.561 276.073 213.21C276.906 212.858 279.715 212.306 282.314 211.982C284.914 211.658 287.83 211.043 288.795 210.615C289.761 210.189 291.313 209.828 292.246 209.815C293.179 209.804 295.033 209.432 296.365 208.99C297.698 208.549 300.015 207.863 301.514 207.466C307.259 205.948 316.185 202.988 317.869 202.043C318.368 201.763 319.459 201.277 320.291 200.963C321.124 200.65 322.487 200.055 323.32 199.642C324.153 199.23 325.72 198.552 326.803 198.136C327.886 197.72 328.772 197.149 328.772 196.868C328.772 196.163 332.006 196.221 332.847 196.94C333.287 197.318 333.342 197.945 333 198.715C332.709 199.371 332.286 203.484 332.061 207.855C331.658 215.699 331.626 215.836 329.673 218.395C327.748 220.916 323.415 224.359 322.168 224.359C321.828 224.359 321.062 224.797 320.467 225.331C319.87 225.867 318.701 226.481 317.869 226.696C317.036 226.912 315.63 227.524 314.746 228.056C313.862 228.591 312.69 229.026 312.14 229.026C311.592 229.026 310.135 229.481 308.902 230.036C306.414 231.16 302.597 232.288 296.648 233.661C294.472 234.163 292.155 234.81 291.5 235.099C290.844 235.388 289.025 235.768 287.456 235.943C285.888 236.118 282.966 236.734 280.964 237.31C278.961 237.889 276.258 238.361 274.957 238.361C273.656 238.361 271.403 238.72 269.951 239.158C268.499 239.596 264.581 240.2 261.243 240.5C257.906 240.799 254.64 241.291 253.985 241.591C253.33 241.893 248.328 242.446 242.87 242.819C237.413 243.194 232.088 243.74 231.039 244.033C229.988 244.326 222.315 244.797 213.986 245.081C205.657 245.364 192.926 245.876 185.694 246.22C175.394 246.708 169.619 246.706 159.042 246.208C151.616 245.859 138.861 245.365 130.698 245.11C121.867 244.832 114.263 244.337 111.921 243.883C109.755 243.466 104.953 242.967 101.248 242.776C97.5438 242.587 93.4551 242.194 92.1619 241.904C90.8702 241.615 86.9496 241.051 83.4515 240.653C79.9534 240.253 76.2737 239.68 75.2742 239.378C74.2748 239.078 71.499 238.616 69.1064 238.354C66.7122 238.091 63.1097 237.401 61.0987 236.822C59.0876 236.242 56.7268 235.768 55.85 235.768C54.9732 235.768 53.3983 235.428 52.3474 235.013C51.2979 234.597 48.8038 233.914 46.8049 233.495C41.8864 232.462 36.4758 230.802 34.8494 229.829C34.1134 229.387 32.9277 229.026 32.2145 229.026C31.5012 229.026 30.267 228.592 29.472 228.06C28.677 227.529 27.3459 226.917 26.513 226.699C25.6802 226.483 24.5111 225.867 23.9145 225.331C23.3193 224.797 22.5667 224.359 22.2442 224.359C18.2933 224.359 12.5722 217.497 12.5934 212.787C12.601 211.308 12.1376 207.261 11.5622 203.795C10.2099 195.627 11.0473 194.467 16.2035 197.357ZM332.061 228.243C327.789 228.929 308.265 305.798 307.571 312.791C307.232 316.206 306.656 319.933 306.292 321.074C305.928 322.215 305.381 325.832 305.08 329.112C304.777 332.392 304.138 336.476 303.66 338.187C303.181 339.898 302.479 344.445 302.097 348.291C301.717 352.137 301.172 355.655 300.888 356.109C300.605 356.563 299.94 360.829 299.412 365.589C298.883 370.349 298.204 374.765 297.902 375.403C297.599 376.041 297.033 379.568 296.642 383.242C296.252 386.918 295.684 390.651 295.382 391.539C295.081 392.429 294.543 396.073 294.188 399.638C293.832 403.204 293.149 407.737 292.667 409.713C292.187 411.689 291.636 415.423 291.442 418.01C291.248 420.598 290.735 423.999 290.302 425.567C289.869 427.136 289.342 429.494 289.13 430.808C288.871 432.419 288.262 433.555 287.255 434.304C286.436 434.915 285.765 435.648 285.765 435.935C285.765 436.223 285.37 436.457 284.887 436.457C284.404 436.457 283.79 436.763 283.524 437.138C283.016 437.851 272.069 443.199 271.117 443.199C270.814 443.199 269.286 443.782 267.722 444.495C266.157 445.208 264.458 445.792 263.947 445.792C263.435 445.792 262.453 446.129 261.766 446.541C261.078 446.954 259.178 447.576 257.543 447.923C255.909 448.271 254.025 448.845 253.358 449.198C252.692 449.552 250.92 450.003 249.421 450.2C247.922 450.397 246.105 450.879 245.384 451.269C244.663 451.661 242.255 452.23 240.032 452.533C237.809 452.837 235.402 453.406 234.681 453.797C233.96 454.189 231.325 454.674 228.826 454.875C226.328 455.076 223.329 455.58 222.163 455.995C220.997 456.41 216.227 457.067 211.563 457.455C206.899 457.844 201.584 458.432 199.751 458.764C195.295 459.572 150.774 459.644 144.933 458.855C142.601 458.54 137.967 458.025 134.636 457.713C131.304 457.4 126.67 456.797 124.338 456.374C122.006 455.95 117.707 455.286 114.783 454.898C111.86 454.512 109.124 453.95 108.703 453.651C108.282 453.351 106.05 452.848 103.743 452.533C101.437 452.218 99.2489 451.747 98.8825 451.486C98.5145 451.224 96.5958 450.679 94.6181 450.275C92.6404 449.869 90.2054 449.164 89.206 448.705C88.2065 448.247 86.8739 447.871 86.2439 447.869C85.1597 447.866 83.6984 447.355 76.4251 444.438C74.726 443.756 72.9194 443.199 72.4106 443.199C71.9018 443.199 71.1553 442.858 70.7509 442.441C70.3466 442.024 69.4305 441.524 68.7157 441.33C59.9735 438.954 54.531 432.904 53.6875 424.621C53.3483 421.292 52.6881 417.166 52.2202 415.455C51.7522 413.744 51.0723 409.44 50.7104 405.889C50.3485 402.339 49.7776 398.997 49.4429 398.461C49.1098 397.927 48.5707 394.459 48.2466 390.754C47.921 387.05 47.394 383.428 47.073 382.704C46.7504 381.981 46.2083 378.553 45.8646 375.086C45.5223 371.62 44.7182 366.683 44.0792 364.116C43.4386 361.549 42.6648 356.765 42.3574 353.485C42.05 350.205 41.4912 346.522 41.1141 345.301C40.7371 344.078 40.1616 340.273 39.8345 336.844C39.5074 333.415 38.991 330.211 38.6867 329.725C38.3823 329.238 37.8023 325.575 37.398 321.586C36.9937 317.597 36.2865 313.181 35.8276 311.774C35.3688 310.368 34.9932 308.457 34.9932 307.527C34.9932 305.401 19.8095 230.857 11.2648 227.476C6.95024 225.769 3.11374 215.81 4.67652 220.221C5.15807 221.577 27.2414 313.879 27.4565 316.801C27.673 319.722 28.3378 323.861 28.9359 326C29.5326 328.139 30.2004 332.669 30.4185 336.066C30.6365 339.463 31.0802 342.667 31.4058 343.189C31.7314 343.71 32.2841 346.647 32.6324 349.717C32.9822 352.787 33.535 356.467 33.8605 357.893C34.1876 359.319 34.966 364.22 35.5914 368.783C36.2168 373.347 36.9937 378.13 37.3177 379.414C37.6418 380.697 38.24 384.665 38.6458 388.23C39.0531 391.795 39.6331 395.275 39.9375 395.962C40.2404 396.649 40.7537 400.198 41.0778 403.848C41.4034 407.499 42.0712 411.837 42.5633 413.488C43.057 415.141 43.7248 419.176 44.0504 422.456C44.803 430.048 46.1659 435.191 48.0346 437.495C50.2485 440.224 54.316 443.534 57.3219 445.054C58.3668 445.583 59.2224 446.173 59.2224 446.366C59.2224 446.559 59.8538 446.852 60.6246 447.018C61.3969 447.184 62.6644 447.792 63.4428 448.37C64.2227 448.949 65.2948 449.43 65.8263 449.437C66.3594 449.447 67.8843 450.029 69.2169 450.731C70.5495 451.434 72.0623 452.011 72.5787 452.012C73.0951 452.014 73.8189 452.273 74.1884 452.589C74.835 453.143 80.1912 454.881 85.8745 456.384C87.3736 456.781 89.6905 457.466 91.0231 457.907C92.3558 458.349 94.073 458.721 94.8392 458.733C95.6055 458.746 96.9684 459.082 97.8679 459.48C98.7674 459.878 101.548 460.562 104.046 460.999C106.545 461.437 109.68 462.032 111.012 462.323C115.175 463.229 123.527 464.516 128.578 465.03C131.244 465.301 136.559 465.913 140.39 466.391C150.846 467.695 194.601 467.706 202.629 466.405C205.71 465.906 209.663 465.487 211.412 465.476C213.161 465.463 215.818 465.214 217.318 464.922C218.817 464.631 222.769 463.962 226.101 463.435C235.924 461.883 244.144 460.285 246.09 459.546C247.089 459.166 249.27 458.624 250.936 458.34C254.199 457.783 258.571 456.552 262.444 455.099C263.777 454.6 265.735 454.036 266.793 453.847C267.853 453.659 269.045 453.169 269.442 452.759C269.839 452.349 270.579 452.015 271.087 452.015C272.518 452.015 283.821 447.039 285.703 445.581C286.289 445.127 287.02 444.751 287.326 444.747C287.634 444.742 289.361 443.581 291.166 442.168C292.972 440.754 294.607 439.533 294.801 439.454C296.341 438.826 298.372 433.708 298.753 429.493C298.983 426.947 299.548 423.563 300.009 421.974C300.469 420.385 301.116 416.271 301.444 412.83C301.773 409.389 302.315 406.005 302.647 405.31C302.98 404.615 303.546 400.887 303.904 397.026C304.261 393.164 304.844 389.197 305.198 388.21C305.553 387.222 306.08 383.719 306.369 380.425C306.66 377.131 307.317 372.814 307.832 370.831C308.346 368.849 309.023 364.427 309.337 361.004C309.65 357.582 310.171 354.188 310.494 353.462C310.816 352.737 311.398 349.12 311.786 345.424C312.173 341.729 312.753 337.772 313.076 336.631C313.398 335.49 314.068 330.94 314.561 326.519C315.056 322.098 315.755 317.715 316.113 316.779C316.963 314.555 339.267 222.821 338.463 222.662C338.13 222.596 333.727 227.976 332.061 228.243Z" fill="#71AD9B" fill-opacity="0.3"/>
</svg>
