<svg width="59" height="59" viewBox="0 0 59 59" fill="none" xmlns="http://www.w3.org/2000/svg">
<path d="M53.6364 0H5.36364C2.40023 0 0 2.40023 0 5.36364V53.6364C0 56.5998 2.40023 59 5.36364 59H32.1818V34.8636H24.1364V26.8182H32.1818V22.4978C32.1818 14.3182 36.167 10.7273 42.9654 10.7273C46.2211 10.7273 47.9429 10.9686 48.7581 11.0786V18.7727H44.1213C41.2356 18.7727 40.2273 20.296 40.2273 23.3801V26.8182H48.6857L47.5379 34.8636H40.2273V59H53.6364C56.5998 59 59 56.5998 59 53.6364V5.36364C59 2.40023 56.5971 0 53.6364 0Z" fill="#F8F5F1"/>
</svg>
