<svg width="59" height="59" viewBox="0 0 59 59" fill="none" xmlns="http://www.w3.org/2000/svg">
<path d="M17.4318 0C7.82083 0 0 7.82083 0 17.4318V41.5682C0 51.1792 7.82083 59 17.4318 59H41.5682C51.1792 59 59 51.1792 59 41.5682V17.4318C59 7.82083 51.1792 0 41.5682 0H17.4318ZM17.4318 2.68182H41.5682C49.7296 2.68182 56.3182 9.2704 56.3182 17.4318V41.5682C56.3182 49.7296 49.7296 56.3182 41.5682 56.3182H17.4318C9.2704 56.3182 2.68182 49.7296 2.68182 41.5682V17.4318C2.68182 9.2704 9.2704 2.68182 17.4318 2.68182ZM45.5909 10.7273C44.8796 10.7273 44.1975 11.0098 43.6946 11.5128C43.1916 12.0157 42.9091 12.6978 42.9091 13.4091C42.9091 14.1204 43.1916 14.8025 43.6946 15.3054C44.1975 15.8084 44.8796 16.0909 45.5909 16.0909C46.3022 16.0909 46.9843 15.8084 47.4872 15.3054C47.9902 14.8025 48.2727 14.1204 48.2727 13.4091C48.2727 12.6978 47.9902 12.0157 47.4872 11.5128C46.9843 11.0098 46.3022 10.7273 45.5909 10.7273ZM29.5 14.75C21.3697 14.75 14.75 21.3697 14.75 29.5C14.75 37.6303 21.3697 44.25 29.5 44.25C37.6303 44.25 44.25 37.6303 44.25 29.5C44.25 21.3697 37.6303 14.75 29.5 14.75ZM29.5 17.4318C36.181 17.4318 41.5682 22.819 41.5682 29.5C41.5682 36.181 36.181 41.5682 29.5 41.5682C22.819 41.5682 17.4318 36.181 17.4318 29.5C17.4318 22.819 22.819 17.4318 29.5 17.4318Z" fill="#F8F5F1"/>
</svg>
