<svg width="59" height="59" viewBox="0 0 59 59" fill="none" xmlns="http://www.w3.org/2000/svg">
<path d="M53.6364 0H5.36364C2.40023 0 0 2.40023 0 5.36364V53.6364C0 56.5998 2.40023 59 5.36364 59H53.6364C56.5998 59 59 56.5998 59 53.6364V5.36364C59 2.40023 56.5998 0 53.6364 0ZM18.6494 48.2727H10.738V22.8169H18.6494V48.2727ZM14.6132 19.1777C12.0628 19.1777 10.0005 17.11 10.0005 14.565C10.0005 12.0199 12.0655 9.95491 14.6132 9.95491C17.1556 9.95491 19.2233 12.0226 19.2233 14.565C19.2233 17.11 17.1556 19.1777 14.6132 19.1777ZM48.2835 48.2727H40.3775V35.8935C40.3775 32.9408 40.3238 29.1433 36.2662 29.1433C32.1496 29.1433 31.5167 32.3588 31.5167 35.6789V48.2727H23.6107V22.8169H31.2003V26.2952H31.3075C32.3642 24.2946 34.9441 22.184 38.7925 22.184C46.8031 22.184 48.2835 27.4565 48.2835 34.3112V48.2727Z" fill="#F8F5F1"/>
</svg>
