<svg width="29" height="26" viewBox="0 0 29 26" fill="none" xmlns="http://www.w3.org/2000/svg">
<path d="M27.4183 10.5606H25.0036V6.8048C25.0036 3.05459 20.3373 0.00354004 14.5963 0.00354004C8.85524 0.00354004 4.18897 3.05659 4.18897 6.80924V10.5606H1.80109C0.973701 10.5606 0.289062 10.9898 0.289062 11.5301V22.8779C0.289062 24.2264 1.98308 25.3225 4.04821 25.3225H25.1712C27.2363 25.3225 28.9035 24.2264 28.9035 22.8779V11.5301C28.9035 10.9898 28.2456 10.5606 27.4183 10.5606ZM7.18193 6.80924C7.18193 4.13541 10.5074 1.96007 14.5963 1.96007C18.6852 1.96007 22.0107 4.13339 22.0107 6.8048V10.5606H7.18193V6.80924ZM25.9106 22.8779C25.9106 23.1476 25.5842 23.3681 25.1712 23.3681H4.04821C3.63519 23.3681 3.28202 23.1476 3.28202 22.8779V12.5151H25.9106V22.8779Z" fill="#F8F5F1"/>
<path d="M14.5963 20.8725C15.4237 20.8725 16.0928 20.4346 16.0928 19.8943V16.3725C16.0928 15.8323 15.4237 15.3943 14.5963 15.3943C13.769 15.3943 13.0999 15.8323 13.0999 16.3725V19.8943C13.0999 20.4346 13.7689 20.8725 14.5963 20.8725Z" fill="#F8F5F1"/>
</svg>
