<svg width="29" height="29" viewBox="0 0 29 29" fill="none" xmlns="http://www.w3.org/2000/svg">
<g clip-path="url(#clip0_745_1028)">
<path d="M4.54598 12.3426H23.9586C24.2269 12.3426 24.4454 12.1265 24.4454 11.859V10.2656C24.4454 9.99811 24.2267 9.78196 23.9586 9.78196H23.4346V0.581172C23.4346 0.313319 23.2173 0.097168 22.9472 0.097168H5.55756C5.2873 0.097168 5.06994 0.313314 5.06994 0.581172V9.78247H4.54598C4.27572 9.78247 4.05835 9.99862 4.05835 10.2661V11.8595C4.05835 12.127 4.27611 12.3429 4.54598 12.3429L4.54598 12.3426ZM22.4599 1.06444V9.78087H6.0452V1.06444H22.4599ZM5.03397 10.7496H23.4711V11.3748H5.03397V10.7496Z" fill="#F8F5F1"/>
<path d="M12.2883 8.65152H20.9213C21.1231 8.65152 21.2868 8.48886 21.2868 8.28857C21.2868 8.08827 21.1233 7.92562 20.9213 7.92562H19.9441V6.07125C19.9441 5.87096 19.7806 5.7083 19.5786 5.7083C19.376 5.7083 19.2125 5.87096 19.2125 6.07125V7.92562H17.961L17.9614 4.36367C17.9614 4.16338 17.7979 4.00072 17.596 4.00072C17.3942 4.00072 17.2305 4.16338 17.2305 4.36367V7.92546H15.979V5.36399C15.979 5.16369 15.8155 5.00124 15.6129 5.00124C15.4111 5.00124 15.2475 5.16349 15.2475 5.36399V7.92546H13.996L13.9962 3.65641C13.9962 3.45611 13.8327 3.29346 13.6307 3.29346C13.4289 3.29346 13.2646 3.45611 13.2646 3.65641V7.92546H12.2882C12.0864 7.92546 11.9221 8.08812 11.9221 8.28841C11.9221 8.48891 12.0869 8.65152 12.2883 8.65152Z" fill="#F8F5F1"/>
<path d="M7.45653 4.05114H8.92162C9.12341 4.05114 9.28708 3.88888 9.28708 3.68819C9.28708 3.48789 9.12361 3.32544 8.92162 3.32544H7.45653C7.25474 3.32544 7.09106 3.4877 7.09106 3.68819C7.09106 3.88888 7.25454 4.05114 7.45653 4.05114Z" fill="#F8F5F1"/>
<path d="M7.45653 2.67634H10.1079C10.3097 2.67634 10.4733 2.51408 10.4733 2.31339C10.4733 2.11309 10.3099 1.95044 10.1079 1.95044H7.45653C7.25474 1.95044 7.09106 2.11309 7.09106 2.31339C7.09106 2.51369 7.25454 2.67634 7.45653 2.67634Z" fill="#F8F5F1"/>
<path d="M26.9202 22.677L25.0669 18.1849C25.0178 18.063 24.9054 17.9775 24.7719 17.9618C24.6403 17.9477 24.511 18.0028 24.4327 18.1104L21.9683 21.5159L21.8489 20.9671L24.445 17.3808C24.5172 17.2793 24.5344 17.1476 24.4843 17.0317L22.8086 12.9703C22.7595 12.848 22.6472 12.7628 22.5136 12.7472C22.3803 12.7345 22.2527 12.7886 22.1745 12.8958L20.5695 15.1125L20.4641 14.6275C20.415 14.405 20.2164 14.2461 19.9883 14.2461H8.51474C8.2866 14.2461 8.08799 14.405 8.03889 14.6275L7.90556 15.2431L6.20655 12.8962C6.12851 12.789 5.99697 12.7339 5.86743 12.7476C5.73449 12.7633 5.62212 12.8488 5.57242 12.9707L3.89676 17.0321C3.84926 17.148 3.86443 17.2796 3.93888 17.3812L6.62811 21.0969L6.50795 21.6459L3.94989 18.1109C3.87185 18.0033 3.74091 17.9472 3.60936 17.9623C3.47783 17.9779 3.36545 18.0635 3.31355 18.1854L1.46105 22.6771C1.41294 22.793 1.42871 22.9245 1.50316 23.0264L5.08503 27.9777C5.1008 27.9985 5.12096 28.0078 5.14012 28.0239C5.14211 28.1301 5.16706 28.2347 5.23533 28.3189C5.32854 28.4328 5.46786 28.499 5.61457 28.499H22.8882C23.0365 28.499 23.1759 28.4328 23.2695 28.3189C23.3607 28.205 23.397 28.0558 23.3641 27.9123L23.3607 27.8904L26.8781 23.0264C26.9523 22.9247 26.9673 22.7929 26.9202 22.677ZM22.3813 13.852L23.732 17.1208L21.6388 20.0115L20.7777 16.0688L22.3813 13.852ZM4.65131 17.1208L5.99922 13.8524L7.69623 16.1993L6.83513 20.1405L4.65131 17.1208ZM2.21516 22.7662L3.7411 19.0669L6.2984 22.6021L5.32554 27.063L2.21516 22.7662ZM6.21996 27.5311L8.9092 15.2142H19.5933L19.8312 16.3017C19.8332 16.3134 19.8372 16.3244 19.839 16.3363L22.2839 27.5314L6.21996 27.5311ZM23.1508 26.9336L22.1757 22.4722L24.6402 19.0671L26.1655 22.7664L23.1508 26.9336Z" fill="#F8F5F1"/>
</g>
<defs>
<clipPath id="clip0_745_1028">
<rect width="28.6145" height="28.4018" fill="white" transform="translate(0.289062 0.0968018)"/>
</clipPath>
</defs>
</svg>
