<svg width="29" height="26" viewBox="0 0 29 26" fill="none" xmlns="http://www.w3.org/2000/svg">
<path d="M24.1434 16.3814H21.4608V14.7987H24.1434C24.2675 14.7995 24.3904 14.7774 24.5043 14.7338C24.6183 14.6902 24.7207 14.6261 24.8051 14.5455C24.9696 14.3802 25.0532 14.1639 25.0376 13.9441L24.1434 4.51144C24.1434 3.88182 23.8607 3.27799 23.3577 2.83278C22.8546 2.38757 22.1722 2.13745 21.4608 2.13745H14.3072C13.6079 2.13723 12.9362 2.37864 12.4351 2.81025C11.934 3.24186 11.6432 3.82955 11.6246 4.44814L11.097 10.0508H2.68253C2.44537 10.0508 2.21793 10.1341 2.05024 10.2825C1.88254 10.4309 1.78833 10.6322 1.78833 10.8421C1.78833 11.052 1.88254 11.2532 2.05024 11.4016C2.21793 11.55 2.44537 11.6334 2.68253 11.6334H5.36514V18.7554C5.36514 18.9653 5.45935 19.1665 5.62704 19.315C5.79474 19.4634 6.02218 19.5467 6.25934 19.5467H9.1029C9.28739 20.0085 9.62876 20.4085 10.0802 20.6918C10.5317 20.9752 11.0711 21.128 11.6246 21.1294H12.5188V23.5034C12.5188 23.7133 12.613 23.9145 12.7807 24.0629C12.9484 24.2113 13.1758 24.2947 13.413 24.2947C13.6501 24.2947 13.8776 24.2113 14.0453 24.0629C14.2129 23.9145 14.3072 23.7133 14.3072 23.5034V21.1294H21.4608V23.5034C21.4608 23.7133 21.555 23.9145 21.7227 24.0629C21.8904 24.2113 22.1178 24.2947 22.355 24.2947C22.5921 24.2947 22.8196 24.2113 22.9873 24.0629C23.155 23.9145 23.2492 23.7133 23.2492 23.5034V21.1294H24.1434C24.8548 21.1294 25.5372 20.8793 26.0403 20.4341C26.5434 19.9889 26.826 19.385 26.826 18.7554C26.826 18.1258 26.5434 17.5219 26.0403 17.0767C25.5372 16.6315 24.8548 16.3814 24.1434 16.3814ZM19.6724 16.3814H16.0956V14.7987H19.6724V16.3814ZM13.413 4.51144C13.413 4.30157 13.5072 4.10029 13.6749 3.95189C13.8426 3.80349 14.07 3.72011 14.3072 3.72011H21.4608C21.5845 3.71976 21.7069 3.74213 21.8203 3.78579C21.9338 3.82946 22.0357 3.89348 22.1198 3.9738C22.2038 4.05413 22.2681 4.14901 22.3086 4.25245C22.3491 4.35589 22.3649 4.46563 22.355 4.57475L23.1687 13.2161H12.5992L12.7423 11.6334H17.884C18.1211 11.6334 18.3486 11.55 18.5163 11.4016C18.684 11.2532 18.7782 11.052 18.7782 10.8421C18.7782 10.6322 18.684 10.4309 18.5163 10.2825C18.3486 10.1341 18.1211 10.0508 17.884 10.0508H12.8943L13.413 4.51144ZM7.15354 11.6334H10.9539L10.7303 13.9441C10.7147 14.1639 10.7983 14.3802 10.9628 14.5455C11.0472 14.6261 11.1497 14.6902 11.2636 14.7338C11.3775 14.7774 11.5004 14.7995 11.6246 14.7987H14.3072V16.3814H11.6246C11.0711 16.3828 10.5317 16.5356 10.0802 16.819C9.62876 17.1023 9.28739 17.5023 9.1029 17.9641H7.15354V11.6334ZM24.1434 19.5467H11.6246C11.3874 19.5467 11.16 19.4634 10.9923 19.315C10.8246 19.1665 10.7303 18.9653 10.7303 18.7554C10.7303 18.5455 10.8246 18.3442 10.9923 18.1958C11.16 18.0474 11.3874 17.9641 11.6246 17.9641H24.1434C24.3805 17.9641 24.608 18.0474 24.7757 18.1958C24.9434 18.3442 25.0376 18.5455 25.0376 18.7554C25.0376 18.9653 24.9434 19.1665 24.7757 19.315C24.608 19.4634 24.3805 19.5467 24.1434 19.5467Z" fill="#F8F5F1"/>
</svg>
