<svg width="30" height="25" viewBox="0 0 30 25" fill="none" xmlns="http://www.w3.org/2000/svg">
<g clip-path="url(#clip0_745_1012)">
<path d="M28.9612 18.8967L27.6577 23.8186C27.4746 24.5144 26.7724 25.0012 25.95 25.0012C11.8054 25.0002 0.300903 14.9807 0.300903 2.66142C0.300903 1.9456 0.859813 1.33329 1.65879 1.1746L7.31012 0.0393499C8.13315 -0.126763 8.97412 0.245307 9.31611 0.924114L11.9242 6.22196C12.2291 6.84598 12.0235 7.57303 11.4208 8.00174L8.40226 10.1126C10.3073 13.4925 13.4627 16.2405 17.3446 17.9006L19.8159 15.2737C20.303 14.7473 21.1441 14.5652 21.8606 14.8355L27.9436 17.1065C28.6753 17.4417 29.1518 18.1839 28.9612 18.8967Z" fill="#F8F5F1"/>
</g>
<defs>
<clipPath id="clip0_745_1012">
<rect width="28.7051" height="25" fill="white" transform="translate(0.300903)"/>
</clipPath>
</defs>
</svg>

