<svg width="35" height="30" viewBox="0 0 35 30" fill="none" xmlns="http://www.w3.org/2000/svg">
<path d="M24.157 10.7812H9.89417C9.62653 10.7812 9.36984 10.6887 9.18059 10.5238C8.99133 10.359 8.88501 10.1354 8.88501 9.90234V3.69141C8.88501 3.45831 8.99133 3.23475 9.18059 3.06993C9.36984 2.9051 9.62653 2.8125 9.89417 2.8125H24.157C24.4247 2.8125 24.6814 2.9051 24.8706 3.06993C25.0599 3.23475 25.1662 3.45831 25.1662 3.69141V9.90234C25.1662 10.1354 25.0599 10.359 24.8706 10.5238C24.6814 10.6887 24.4247 10.7812 24.157 10.7812ZM10.9033 9.02344H23.1479V4.57031H10.9033V9.02344Z" fill="#F8F5F1"/>
<path d="M24.157 26.3672H9.89417C9.62653 26.3672 9.36984 26.2746 9.18059 26.1097C8.99133 25.9449 8.88501 25.7214 8.88501 25.4883V15.9427C8.88501 15.7096 8.99133 15.4861 9.18059 15.3213C9.36984 15.1564 9.62653 15.0638 9.89417 15.0638H24.157C24.4247 15.0638 24.6814 15.1564 24.8706 15.3213C25.0599 15.4861 25.1662 15.7096 25.1662 15.9427V25.4883C25.1662 25.7214 25.0599 25.9449 24.8706 26.1097C24.6814 26.2746 24.4247 26.3672 24.157 26.3672ZM10.9033 24.6094H23.1479V16.8217H10.9033V24.6094Z" fill="#F8F5F1"/>
<path d="M27.4032 22.207H24.1571C23.8894 22.207 23.6327 22.1144 23.4435 21.9496C23.2542 21.7848 23.1479 21.5612 23.1479 21.3281C23.1479 21.095 23.2542 20.8715 23.4435 20.7066C23.6327 20.5418 23.8894 20.4492 24.1571 20.4492H27.4032C27.74 20.4489 28.0628 20.3323 28.301 20.1249C28.5391 19.9175 28.673 19.6363 28.6734 19.343V11.8881C28.6732 11.5947 28.5394 11.3133 28.3012 11.1058C28.0631 10.8983 27.7401 10.7816 27.4032 10.7812H6.64803C6.31114 10.7816 5.98817 10.8983 5.75002 11.1058C5.51187 11.3133 5.37801 11.5947 5.37783 11.8881V19.343C5.37818 19.6363 5.51212 19.9175 5.75026 20.1249C5.98839 20.3323 6.31126 20.4489 6.64803 20.4492H9.89418C10.1618 20.4492 10.4185 20.5418 10.6078 20.7066C10.797 20.8715 10.9033 21.095 10.9033 21.3281C10.9033 21.5612 10.797 21.7848 10.6078 21.9496C10.4185 22.1144 10.1618 22.207 9.89418 22.207H6.64803C5.77619 22.2061 4.94035 21.9041 4.32387 21.3671C3.70738 20.8302 3.36057 20.1023 3.3595 19.343V11.8881C3.36039 11.1287 3.70712 10.4006 4.32363 9.86354C4.94014 9.3265 5.77607 9.02437 6.64803 9.02344H27.4032C28.2752 9.02437 29.1111 9.3265 29.7276 9.86354C30.3441 10.4006 30.6908 11.1287 30.6917 11.8881V19.343C30.6907 20.1023 30.3439 20.8302 29.7274 21.3671C29.1109 21.9041 28.275 22.2061 27.4032 22.207Z" fill="#F8F5F1"/>
<path d="M8.8177 13.8281C8.78445 13.8282 8.75122 13.8268 8.71813 13.824C8.68584 13.821 8.65086 13.8164 8.62058 13.8111C8.59031 13.8058 8.5533 13.7982 8.52437 13.79C8.49544 13.7818 8.46181 13.7718 8.43153 13.7607C8.40126 13.7496 8.37165 13.7373 8.34272 13.7238C8.31327 13.7106 8.28474 13.6959 8.25728 13.6798C8.23037 13.664 8.20346 13.647 8.17789 13.6289C8.15233 13.6107 8.12744 13.5908 8.10389 13.5703C8.08034 13.5498 8.05814 13.5281 8.03661 13.5058C8.01576 13.4836 7.99622 13.4606 7.97808 13.4367C7.95969 13.4125 7.94287 13.3878 7.92762 13.3628C7.91215 13.3376 7.89802 13.3113 7.88524 13.2849C7.87245 13.2585 7.86169 13.231 7.8516 13.2041C7.84151 13.1771 7.83411 13.1455 7.82738 13.1203C7.82065 13.0951 7.81594 13.0617 7.81258 13.0353C7.80613 12.9768 7.80613 12.918 7.81258 12.8595C7.81594 12.8314 7.82132 12.8009 7.82738 12.7746C7.83343 12.7482 7.84218 12.716 7.8516 12.6908C7.86102 12.6656 7.87245 12.6363 7.88524 12.6099C7.89802 12.5835 7.91215 12.5572 7.92762 12.532C7.9431 12.5068 7.95991 12.4822 7.97808 12.4582C7.99622 12.4343 8.01576 12.4112 8.03661 12.389C8.05747 12.3667 8.08034 12.3451 8.10389 12.3246C8.12744 12.3041 8.15233 12.2847 8.17789 12.266C8.20346 12.2472 8.23037 12.2308 8.25728 12.215C8.28474 12.1989 8.31327 12.1842 8.34272 12.171C8.37188 12.1578 8.40148 12.1455 8.43153 12.1341C8.46181 12.123 8.49343 12.1136 8.52437 12.1048C8.55532 12.096 8.59165 12.0896 8.62058 12.0837C8.64951 12.0779 8.68786 12.0738 8.71813 12.0708C8.78415 12.0656 8.85058 12.0656 8.9166 12.0708C8.94957 12.0738 8.98388 12.0785 9.01482 12.0837C9.04577 12.089 9.0821 12.0966 9.11036 12.1048C9.13862 12.113 9.1736 12.123 9.20388 12.1341C9.23415 12.1453 9.26375 12.1576 9.29268 12.171C9.32205 12.1843 9.35057 12.199 9.37812 12.215C9.40503 12.2308 9.43195 12.2478 9.45751 12.266C9.48308 12.2841 9.50797 12.3041 9.53152 12.3246C9.55506 12.3451 9.57659 12.3667 9.59879 12.389C9.621 12.4113 9.63916 12.4347 9.65732 12.4582C9.67549 12.4816 9.69231 12.5068 9.70778 12.532C9.72326 12.5572 9.73739 12.5835 9.75017 12.6099C9.76295 12.6363 9.77372 12.6638 9.78381 12.6908C9.7939 12.7177 9.8013 12.7494 9.80803 12.7746C9.81475 12.7998 9.81946 12.8332 9.82283 12.8595C9.82928 12.918 9.82928 12.9768 9.82283 13.0353C9.81946 13.0634 9.81408 13.0939 9.80803 13.1203C9.80197 13.1466 9.79323 13.1789 9.78381 13.2041C9.77439 13.2292 9.76295 13.2585 9.75017 13.2849C9.73739 13.3113 9.72326 13.3376 9.70778 13.3628C9.69231 13.388 9.67549 13.4126 9.65732 13.4367C9.63916 13.4607 9.61898 13.4835 9.59879 13.5058C9.57861 13.5281 9.55506 13.5498 9.53152 13.5703C9.50797 13.5908 9.48308 13.6101 9.45751 13.6289C9.43195 13.6476 9.40503 13.664 9.37812 13.6798C9.35057 13.6958 9.32205 13.7105 9.29268 13.7238C9.26353 13.7371 9.23393 13.7494 9.20388 13.7607C9.1736 13.7718 9.14198 13.7812 9.11036 13.79C9.07874 13.7988 9.04712 13.8052 9.01482 13.8111C8.98253 13.8169 8.94755 13.821 8.9166 13.824C8.88374 13.8268 8.85073 13.8282 8.8177 13.8281Z" fill="#F8F5F1"/>
<path d="M11.7779 13.8282C11.7449 13.8282 11.7106 13.8282 11.6783 13.8241C11.646 13.82 11.6111 13.8165 11.5808 13.8112C11.5505 13.8059 11.5135 13.7983 11.4846 13.7901C11.4556 13.7819 11.422 13.7719 11.3917 13.7608C11.3615 13.7497 11.3312 13.7374 11.3023 13.7239C11.2733 13.7104 11.2451 13.6958 11.2175 13.6799C11.19 13.6641 11.1635 13.6471 11.1381 13.629C11.1125 13.6108 11.0876 13.5909 11.0641 13.5704C11.0405 13.5499 11.0183 13.5282 10.9968 13.5059C10.9753 13.4837 10.9565 13.4602 10.9383 13.4368C10.9198 13.4127 10.9028 13.3879 10.8872 13.3624C10.8724 13.3372 10.8582 13.3114 10.8454 13.285C10.8327 13.2587 10.8219 13.2311 10.8118 13.2042C10.8017 13.1772 10.7943 13.1456 10.7876 13.1204C10.7809 13.0952 10.7761 13.0618 10.7728 13.0354C10.7663 12.977 10.7663 12.9181 10.7728 12.8596C10.7761 12.8315 10.7815 12.801 10.7876 12.7747C10.7936 12.7483 10.8024 12.7161 10.8118 12.6909C10.8212 12.6657 10.8327 12.6364 10.8454 12.61C10.8582 12.5837 10.8724 12.5579 10.8872 12.5327C10.9028 12.5071 10.9198 12.4823 10.9383 12.4583C10.9565 12.4348 10.976 12.4114 10.9968 12.3891C11.0177 12.3669 11.0405 12.3452 11.0641 12.3247C11.0876 12.3042 11.1125 12.2848 11.1381 12.2661C11.1635 12.2479 11.19 12.2309 11.2175 12.2151C11.2453 12.1991 11.2736 12.1844 11.3023 12.1712C11.3312 12.1577 11.3615 12.1454 11.3917 12.1342C11.422 12.1231 11.4536 12.1137 11.4846 12.1049C11.5155 12.0962 11.5519 12.0897 11.5808 12.0838C11.6097 12.078 11.6481 12.0739 11.6783 12.071C11.7455 12.0655 11.813 12.0655 11.8802 12.071C11.9125 12.0739 11.9474 12.0786 11.9777 12.0838C12.008 12.0891 12.045 12.0967 12.0739 12.1049C12.1029 12.1131 12.1365 12.1231 12.1668 12.1342C12.197 12.1454 12.2266 12.1577 12.2556 12.1712C12.2845 12.1846 12.3134 12.1993 12.341 12.2151C12.3686 12.2309 12.3948 12.2479 12.4204 12.2661C12.446 12.2842 12.4709 12.3042 12.4944 12.3247C12.518 12.3452 12.5395 12.3669 12.5617 12.3891C12.5839 12.4114 12.6021 12.4348 12.6202 12.4583C12.6385 12.4823 12.6553 12.5071 12.6707 12.5327C12.6859 12.5581 12.7001 12.5838 12.7131 12.61C12.7258 12.6364 12.7366 12.6639 12.7467 12.6909C12.7568 12.7178 12.7642 12.7495 12.7709 12.7747C12.7777 12.7999 12.7824 12.8333 12.7857 12.8596C12.7922 12.9181 12.7922 12.977 12.7857 13.0354C12.7824 13.0635 12.777 13.094 12.7709 13.1204C12.7649 13.1467 12.7561 13.179 12.7467 13.2042C12.7373 13.2294 12.7258 13.2587 12.7131 13.285C12.7003 13.3114 12.6862 13.3372 12.6707 13.3624C12.6553 13.3879 12.6385 13.4127 12.6202 13.4368C12.6021 13.4602 12.5819 13.4837 12.5617 13.5059C12.5415 13.5282 12.518 13.5499 12.4944 13.5704C12.4709 13.5909 12.446 13.6102 12.4204 13.629C12.3948 13.6477 12.3679 13.6641 12.341 13.6799C12.3141 13.6958 12.2845 13.7104 12.2556 13.7239C12.2266 13.7374 12.197 13.7497 12.1668 13.7608C12.1365 13.7719 12.1049 13.7813 12.0739 13.7901C12.043 13.7989 12.0067 13.8053 11.9777 13.8112C11.9488 13.8171 11.9104 13.8212 11.8802 13.8241C11.8499 13.827 11.8109 13.8282 11.7779 13.8282Z" fill="#F8F5F1"/>
<path d="M20.9951 20.1562H13.0563C12.7886 20.1562 12.532 20.0637 12.3427 19.8988C12.1534 19.734 12.0471 19.5104 12.0471 19.2773C12.0471 19.0442 12.1534 18.8207 12.3427 18.6559C12.532 18.491 12.7886 18.3984 13.0563 18.3984H20.9951C21.2627 18.3984 21.5194 18.491 21.7086 18.6559C21.8979 18.8207 22.0042 19.0442 22.0042 19.2773C22.0042 19.5104 21.8979 19.734 21.7086 19.8988C21.5194 20.0637 21.2627 20.1562 20.9951 20.1562Z" fill="#F8F5F1"/>
<path d="M20.9951 23.2617H13.0563C12.7886 23.2617 12.532 23.1691 12.3427 23.0043C12.1534 22.8395 12.0471 22.6159 12.0471 22.3828C12.0471 22.1497 12.1534 21.9262 12.3427 21.7613C12.532 21.5965 12.7886 21.5039 13.0563 21.5039H20.9951C21.2627 21.5039 21.5194 21.5965 21.7086 21.7613C21.8979 21.9262 22.0042 22.1497 22.0042 22.3828C22.0042 22.6159 21.8979 22.8395 21.7086 23.0043C21.5194 23.1691 21.2627 23.2617 20.9951 23.2617Z" fill="#F8F5F1"/>
</svg>
