<svg width="35" height="30" viewBox="0 0 35 30" fill="none" xmlns="http://www.w3.org/2000/svg">
<path d="M5.66046 11.8367C5.41749 11.8367 5.17452 11.7355 4.98 11.5332C4.59114 11.1284 4.59114 10.496 4.98 10.0912C8.26065 6.67602 12.6103 4.80408 17.2276 4.80408C21.869 4.80408 26.2185 6.67607 29.4752 10.0912C29.864 10.496 29.864 11.1284 29.4752 11.5332C29.0863 11.938 28.4789 11.938 28.09 11.5332C25.174 8.49756 21.31 6.85311 17.2036 6.85311C13.0967 6.85311 9.23272 8.52281 6.3171 11.5332C6.14699 11.7355 5.90383 11.8367 5.66085 11.8367H5.66046ZM26.2676 14.8978C26.6565 14.493 26.6565 13.8606 26.2676 13.4558C23.862 10.9513 20.6544 9.55995 17.228 9.55995C13.8016 9.55995 10.5936 10.9513 8.18832 13.4558C7.79945 13.8606 7.79945 14.493 8.18832 14.8978C8.57718 15.3026 9.1846 15.3026 9.57345 14.8978C11.6146 12.7729 14.3363 11.5838 17.2525 11.5838C20.1443 11.5838 22.8657 12.7475 24.9315 14.8978C25.1258 15.1001 25.369 15.2013 25.612 15.2013C25.8305 15.1759 26.0735 15.1001 26.2678 14.8978H26.2676ZM23.06 18.237C23.4489 17.8322 23.4489 17.1998 23.06 16.795C21.5048 15.176 19.4391 14.2905 17.2278 14.2905C15.0164 14.2905 12.9508 15.1759 11.3955 16.795C11.0067 17.1998 11.0067 17.8322 11.3955 18.237C11.7844 18.6418 12.3918 18.6418 12.7807 18.237C13.9715 16.9973 15.551 16.3144 17.2277 16.3144C18.9045 16.3144 20.484 16.9973 21.6748 18.237C21.8691 18.4393 22.1123 18.5405 22.3552 18.5405C22.6224 18.5405 22.8654 18.4395 23.0599 18.237H23.06ZM19.7794 20.2354C18.37 18.7682 16.0856 18.7682 14.7005 20.2354L15.7941 21.3739C16.596 22.2087 17.9083 22.2087 18.7101 21.3739L19.7794 20.2354Z" fill="#F8F5F1"/>
</svg>
