<svg width="53" height="31" viewBox="0 0 53 31" fill="none" xmlns="http://www.w3.org/2000/svg">
<path d="M15.0632 11.31C15.0632 11.9402 15.1329 12.4512 15.255 12.826C15.3944 13.2007 15.5688 13.6095 15.8129 14.0523C15.9 14.1886 15.9349 14.3249 15.9349 14.4441C15.9349 14.6144 15.8303 14.7848 15.6037 14.9551L14.5053 15.6705C14.3484 15.7727 14.1915 15.8238 14.052 15.8238C13.8777 15.8238 13.7033 15.7386 13.529 15.5853C13.2849 15.3298 13.0757 15.0573 12.9013 14.7848C12.727 14.4952 12.5527 14.1716 12.3609 13.7798C11.001 15.3468 9.29246 16.1304 7.23523 16.1304C5.77075 16.1304 4.60266 15.7216 3.74838 14.904C2.89411 14.0864 2.45825 12.9963 2.45825 11.6337C2.45825 10.1859 2.98128 9.01058 4.04477 8.12486C5.10825 7.23915 6.52042 6.79629 8.31615 6.79629C8.90891 6.79629 9.51911 6.84739 10.1642 6.93255C10.8092 7.01772 11.4717 7.15398 12.1691 7.30728V6.06387C12.1691 4.76937 11.8902 3.86662 11.3497 3.3386C10.7918 2.81058 9.85036 2.55508 8.50792 2.55508C7.89773 2.55508 7.27009 2.62321 6.62503 2.77651C5.97996 2.92981 5.35233 3.11717 4.74213 3.35563C4.46319 3.47486 4.25398 3.54299 4.13194 3.57706C4.0099 3.61113 3.92273 3.62816 3.85299 3.62816C3.60891 3.62816 3.48687 3.45783 3.48687 3.10014V2.26552C3.48687 1.99299 3.52174 1.7886 3.60891 1.66937C3.69608 1.55014 3.85299 1.43091 4.09707 1.31168C4.70727 1.00508 5.4395 0.749588 6.29378 0.545192C7.14806 0.323764 8.05463 0.221566 9.01352 0.221566C11.0882 0.221566 12.605 0.681456 13.5813 1.60124C14.5402 2.52102 15.0283 3.91772 15.0283 5.79135V11.31H15.0632ZM7.9849 13.899C8.56023 13.899 9.15299 13.7968 9.78062 13.5924C10.4083 13.388 10.9661 13.0133 11.4369 12.5023C11.7158 12.1787 11.925 11.821 12.0296 11.4122C12.1342 11.0034 12.204 10.5095 12.204 9.93036V9.21497C11.6984 9.09574 11.1579 8.99354 10.6 8.92541C10.0421 8.85728 9.50168 8.82321 8.96121 8.82321C7.79312 8.82321 6.93884 9.04464 6.36352 9.50453C5.78819 9.96442 5.50924 10.6117 5.50924 11.4633C5.50924 12.2639 5.71845 12.86 6.15431 13.2688C6.57273 13.6946 7.18292 13.899 7.9849 13.899ZM21.9846 15.7386C21.6708 15.7386 21.4615 15.6875 21.3221 15.5683C21.1826 15.4661 21.0606 15.2276 20.956 14.904L16.8589 1.7375C16.7543 1.39684 16.702 1.17541 16.702 1.05618C16.702 0.783654 16.8415 0.630357 17.1204 0.630357H18.829C19.1602 0.630357 19.3869 0.681456 19.5089 0.800687C19.6484 0.902885 19.753 1.14135 19.8576 1.46497L22.7865 12.7408L25.5063 1.46497C25.5935 1.12431 25.6981 0.902885 25.8375 0.800687C25.977 0.698489 26.2211 0.630357 26.5349 0.630357L27.9296 0.630357C28.2609 0.630357 28.4875 0.681456 28.627 0.800687C28.7665 0.902885 28.8885 1.14135 28.9583 1.46497L31.7129 12.8771L34.729 1.46497C34.8336 1.12431 34.9556 0.902885 35.0777 0.800687C35.2171 0.698489 35.4438 0.630357 35.7576 0.630357L37.379 0.630357C37.6579 0.630357 37.8148 0.766621 37.8148 1.05618C37.8148 1.14135 37.7974 1.22651 37.78 1.32871C37.7625 1.43091 37.7277 1.56717 37.6579 1.75453L33.4563 14.921C33.3517 15.2617 33.2296 15.4831 33.0902 15.5853C32.9507 15.6875 32.724 15.7556 32.4277 15.7556H30.9283C30.5971 15.7556 30.3704 15.7045 30.231 15.5853C30.0915 15.4661 29.9694 15.2446 29.8997 14.904L27.1974 3.91772L24.5125 14.887C24.4254 15.2276 24.3208 15.449 24.1813 15.5683C24.0418 15.6875 23.7977 15.7386 23.4839 15.7386H21.9846ZM44.3875 16.1985C43.481 16.1985 42.5744 16.0963 41.7027 15.8919C40.831 15.6875 40.151 15.4661 39.6977 15.2106C39.4188 15.0573 39.227 14.8869 39.1573 14.7337C39.0875 14.5804 39.0527 14.41 39.0527 14.2567V13.388C39.0527 13.0304 39.1921 12.86 39.4537 12.86C39.5583 12.86 39.6629 12.8771 39.7675 12.9111C39.8721 12.9452 40.029 13.0133 40.2033 13.0815C40.7961 13.337 41.4412 13.5413 42.1211 13.6776C42.8185 13.8139 43.4984 13.882 44.1958 13.882C45.2941 13.882 46.1484 13.6946 46.7412 13.3199C47.3339 12.9452 47.6477 12.4001 47.6477 11.7018C47.6477 11.2249 47.4908 10.8331 47.177 10.5095C46.8632 10.1859 46.2704 9.89629 45.4162 9.62376L42.8882 8.85728C41.6155 8.46552 40.674 7.8864 40.0987 7.11992C39.5234 6.37047 39.227 5.53585 39.227 4.65014C39.227 3.93475 39.3839 3.30453 39.6977 2.75948C40.0115 2.21442 40.43 1.7375 40.953 1.36277C41.476 0.971016 42.0688 0.681456 42.7662 0.47706C43.4635 0.272665 44.1958 0.1875 44.9629 0.1875C45.3464 0.1875 45.7474 0.204533 46.131 0.255632C46.5319 0.306731 46.8981 0.374863 47.2642 0.442994C47.6129 0.528159 47.9441 0.613324 48.2579 0.715522C48.5717 0.81772 48.8158 0.919918 48.9902 1.02212C49.2342 1.15838 49.4086 1.29464 49.5132 1.44794C49.6178 1.5842 49.6701 1.77157 49.6701 2.01003V2.81058C49.6701 3.16827 49.5306 3.35563 49.2691 3.35563C49.1296 3.35563 48.903 3.2875 48.6066 3.15124C47.6129 2.70838 46.4971 2.48695 45.2592 2.48695C44.2655 2.48695 43.481 2.64025 42.9405 2.96387C42.4 3.2875 42.1211 3.78146 42.1211 4.47981C42.1211 4.95673 42.2954 5.36552 42.6441 5.68915C42.9928 6.01277 43.6379 6.3364 44.5619 6.62596L47.0375 7.39245C48.2928 7.7842 49.1994 8.32926 49.7398 9.02761C50.2803 9.72596 50.5418 10.5265 50.5418 11.4122C50.5418 12.1446 50.3849 12.8089 50.0885 13.388C49.7747 13.9672 49.3563 14.4782 48.8158 14.887C48.2754 15.3128 47.6303 15.6194 46.8806 15.8408C46.0961 16.0793 45.2767 16.1985 44.3875 16.1985Z" fill="#252F3E"/>
<path fill-rule="evenodd" clip-rule="evenodd" d="M47.6825 24.4767C41.9467 28.6157 33.6131 30.813 26.4477 30.813C16.4056 30.813 7.35721 27.185 0.522998 21.1553C-0.0174624 20.6784 0.470695 20.0311 1.11576 20.4059C8.50787 24.596 17.626 27.1339 27.0579 27.1339C33.4214 27.1339 40.4125 25.8394 46.8457 23.1822C47.8046 22.7564 48.624 23.7954 47.6825 24.4767Z" fill="#FF9900"/>
<path fill-rule="evenodd" clip-rule="evenodd" d="M50.071 21.8195C49.3387 20.8997 45.2243 21.3766 43.3588 21.5981C42.8009 21.6662 42.7137 21.1893 43.2193 20.8316C46.497 18.5832 51.8841 19.2305 52.5118 19.9799C53.1394 20.7464 52.3374 26.0096 49.269 28.5305C48.7983 28.9223 48.345 28.7179 48.5542 28.2069C49.2516 26.5206 50.8032 22.7223 50.071 21.8195Z" fill="#FF9900"/>
</svg>
