<svg width="62" height="14" viewBox="0 0 62 14" fill="none" xmlns="http://www.w3.org/2000/svg">
<path d="M51.7058 6.06929L54.3248 6.06868C54.3248 4.51759 53.1058 3.35205 50.9597 3.35205C47.7526 3.35205 47.1545 5.2887 47.1545 6.67237C47.1545 7.48718 47.5638 10.2359 51.6036 10.2359C52.3049 10.2359 53.1147 10.1791 54.1094 9.95206V8.79692C52.527 9.36548 50.1807 9.38992 49.8809 7.2388C49.6311 5.44085 50.0363 4.29762 50.7991 4.29762C51.4608 4.29762 51.7058 5.09287 51.7058 6.06929Z" fill="#FFD400"/>
<path d="M59.2368 5.77379C59.2231 5.03537 59.0495 4.29756 58.3993 4.29756C57.7846 4.29756 57.5573 4.88475 57.463 5.77379H59.2368ZM62.0002 6.11536V6.79543H57.43C57.5906 9.45095 60.0006 9.36938 61.6941 8.79684V9.95199C60.6993 10.179 60.011 10.2352 59.2471 10.2352C55.3209 10.2352 54.7366 7.82134 54.7366 6.59623C54.7366 5.17804 55.4878 3.34894 58.4947 3.35108C60.7112 3.35199 62.0002 4.50958 62.0002 6.11536Z" fill="#FFD400"/>
<path d="M34.1153 9.05563L34.5617 9.05686V6.6213C33.914 6.66926 32.987 6.90604 32.9859 7.96556C32.9859 8.95848 33.5569 9.03669 34.1153 9.05563ZM37.2995 5.75394V10.0342L32.9807 10.0336C31.3916 10.0321 30.2258 9.49466 30.2295 8.02452C30.2354 5.63815 33.5876 5.72492 34.5617 5.72278V5.55719C34.5631 4.10264 32.8149 4.24379 31.769 4.49492C31.5459 4.55113 31.3471 4.61163 31.185 4.67059L31.1865 3.59579C32.1184 3.41309 32.746 3.35107 33.7279 3.35107C36.0298 3.35107 37.2995 4.24684 37.2995 5.75394Z" fill="#FFD400"/>
<path d="M30.2716 3.35107H29.688C27.422 3.35169 25.9457 4.34644 25.9438 5.67481V10.0342H28.6824V5.74447C28.6843 4.54105 29.658 4.38493 30.2716 4.36905V3.35107Z" fill="#FFD400"/>
<path d="M25.4138 0.876465C23.0249 0.876465 21.0039 1.1554 21.0039 3.56834V10.0339H23.7418L23.7421 4.5857H25.6136V3.57139H23.7421V3.06455C23.7436 1.86113 24.8983 1.87855 25.9974 1.87855L25.9967 0.876465H25.4138Z" fill="#FFD400"/>
<path d="M38.8032 3.57178V10.0343H41.5411V4.58669H41.6876C42.6391 4.59005 43.3138 4.6591 43.3138 6.14878V10.0343H46.0516V6.27404C46.0516 5.06818 46.0449 3.57208 42.1724 3.57208L38.8032 3.57178Z" fill="#FFD400"/>
<path d="M19.5233 12.3742C19.5233 13.0543 18.8556 13.6058 18.0315 13.6058C17.2077 13.6058 16.5393 13.0543 16.5393 12.3742C16.5393 11.6942 17.2077 11.1421 18.0315 11.1421C18.8556 11.1421 19.5233 11.6942 19.5233 12.3742Z" fill="#FFD400"/>
<path d="M16.6626 10.0343H19.4008V3.57178H16.6626V10.0343Z" fill="#796A64"/>
<path d="M2.9636 9.07643C4.09345 9.07643 4.48537 8.19136 4.48537 6.72642C4.48537 5.3284 4.09345 4.51146 2.92511 4.51146L2.7545 4.51084V9.07704L2.9636 9.07643ZM3.7911 10.0339H0V0.876465H2.7545V3.57139H3.55129C7.26911 3.57139 7.26726 5.97242 7.26726 6.74109C7.26726 7.75447 6.8783 10.0339 3.7911 10.0339Z" fill="#796A64"/>
<path d="M11.2956 4.51215L11.0862 4.51123V9.07742L11.2568 9.07681C12.4247 9.07681 12.8181 8.25987 12.8181 6.86307C12.8181 5.39752 12.4247 4.51215 11.2956 4.51215ZM12.1228 3.57178C15.2107 3.57178 15.5989 5.85151 15.5989 6.86398C15.5989 7.63296 15.6008 10.0343 11.8829 10.0343H11.0862V12.7292H8.33203V3.57178H12.1228Z" fill="#796A64"/>
<path d="M19.5233 1.23215C19.5233 1.91162 18.8556 2.46307 18.0315 2.46307C17.2077 2.46307 16.5393 1.91162 16.5393 1.23215C16.5393 0.552068 17.2077 0 18.0315 0C18.8556 0 19.5233 0.552068 19.5233 1.23215Z" fill="#796A64"/>
</svg>
