<svg width="66" height="18" viewBox="0 0 66 18" fill="none" xmlns="http://www.w3.org/2000/svg">
<path d="M65.9998 0V12.1865H0L0 0L65.9998 0Z" fill="#FFCC00"/>
<path d="M11.6067 2.18799L9.49805 4.58495C9.49805 4.58495 20.4296 4.58495 20.9904 4.58495C21.5713 4.58495 21.5636 4.76963 21.2796 5.09146C20.9913 5.41816 20.5087 5.98632 20.215 6.31818C20.066 6.4866 19.7965 6.79343 20.6895 6.79343C21.6337 6.79343 25.3892 6.79343 25.3892 6.79343C25.3892 6.79343 26.1467 5.9309 26.7815 5.2099C27.6454 4.22912 26.8565 2.18809 23.7683 2.18809C21.0042 2.18799 11.6067 2.18799 11.6067 2.18799Z" fill="#D2002E"/>
<path d="M8.64502 9.99713L12.8804 5.18213C12.8804 5.18213 17.5756 5.18213 18.1361 5.18213C18.717 5.18213 18.7095 5.36681 18.4255 5.68864C18.1372 6.01534 17.6467 6.57748 17.353 6.90934C17.2039 7.07776 16.9345 7.38508 17.8274 7.38508C18.7716 7.38508 24.8685 7.38508 24.8685 7.38508C24.2829 8.0563 22.3835 9.99713 18.9728 9.99713C16.2087 9.99713 8.64502 9.99713 8.64502 9.99713Z" fill="#D2002E"/>
<path d="M32.9008 7.38477L30.604 9.99738H24.5454C24.5454 9.99738 26.8409 7.38535 26.8429 7.38535L32.9008 7.38477Z" fill="#D2002E"/>
<path d="M42.1823 6.79343H27.3635L31.4159 2.18799H37.4727L35.1499 4.82875H37.8535L40.1772 2.18799H46.2333L42.1823 6.79343Z" fill="#D2002E"/>
<path d="M41.6623 7.38574L39.3645 9.99777H33.3081C33.3081 9.99777 35.6036 7.38574 35.6056 7.38574H41.6623Z" fill="#D2002E"/>
<path d="M0 8.41553H8.92545L8.43789 8.97046H0L0 8.41553Z" fill="#D2002E"/>
<path d="M0 7.38574H9.83221L9.34373 7.93985H0L0 7.38574Z" fill="#D2002E"/>
<path d="M0 9.4458H8.01913L7.53391 9.99725H0L0 9.4458Z" fill="#D2002E"/>
<path d="M65.9998 8.97037H57.1089L57.5967 8.41553H65.9998V8.97037Z" fill="#D2002E"/>
<path d="M66 9.99736L56.2051 9.99814L56.6903 9.4458H66V9.99736Z" fill="#D2002E"/>
<path d="M58.5025 7.38574H66V7.94016L58.0151 7.94064L58.5025 7.38574Z" fill="#D2002E"/>
<path d="M54.6214 2.18799L50.5697 6.79337H44.1519C44.1519 6.79337 48.2045 2.18799 48.2065 2.18799H54.6214Z" fill="#D2002E"/>
<path d="M43.6324 7.38574C43.6324 7.38574 43.1896 7.89196 42.9746 8.13528C42.2138 8.99557 42.8864 9.99777 45.3691 9.99777C48.2362 9.99777 55.0959 9.99777 55.0959 9.99777L57.3935 7.38574H43.6324Z" fill="#D2002E"/>
<path d="M0 14.1675H66V14.4453H0L0 14.1675Z" fill="#FFCC00"/>
<path d="M0 15.4561H66V15.7339H0L0 15.4561Z" fill="#FFCC00"/>
<path d="M0 16.7437H66V17.0214H0L0 16.7437Z" fill="#FFCC00"/>
<path d="M22.1624 17.0199H24.1486L24.4657 16.6604H22.9875L23.8164 15.7206H25.1625L25.4796 15.361H24.1335L24.8686 14.5276H26.3468L26.6639 14.168H24.6778L22.1624 17.0199Z" fill="#D2002E"/>
<path d="M24.6001 17.0199H25.2097L27.2873 15.8105L27.267 17.0199H27.907L27.9118 15.5286L30.3056 14.168H29.7265L27.821 15.263L27.8418 14.168H27.2323L27.2138 15.5368L24.6001 17.0199Z" fill="#D2002E"/>
<path fill-rule="evenodd" clip-rule="evenodd" d="M31.0744 14.5277H31.5062C31.8212 14.5277 32.1731 14.6584 31.856 15.0179C31.5245 15.3938 31.0165 15.5205 30.7015 15.5205H30.1986L31.0744 14.5277ZM28.3682 17.02H28.8761L29.8815 15.8801H30.3793C31.0193 15.8801 31.8321 15.6553 32.3907 15.022C32.9637 14.3723 32.5394 14.168 31.8131 14.168H30.8835L28.3682 17.02Z" fill="#D2002E"/>
<path fill-rule="evenodd" clip-rule="evenodd" d="M31.2935 17.02H31.8015L32.9186 15.7533H33.2234C33.4926 15.7533 33.6603 15.7533 33.5728 16.0311L33.2443 17.02H33.8234L34.1546 15.8841C34.1979 15.7084 34.1758 15.6472 34.0615 15.5981L34.0687 15.5899C34.5308 15.5326 35.0669 15.2875 35.3733 14.9402C35.975 14.258 35.3788 14.168 34.6777 14.168H33.809L31.2935 17.02ZM33.9998 14.5277H34.4874C34.9548 14.5277 35.0544 14.6911 34.8274 14.9485C34.586 15.2223 34.1502 15.3938 33.6675 15.3938H33.2358L33.9998 14.5277Z" fill="#D2002E"/>
<path d="M34.3494 17.0199H36.3355L36.6527 16.6604H35.1745L36.0033 15.7206H37.3494L37.6665 15.361H36.3204L37.0556 14.5276H38.5337L38.851 14.168H36.8648L34.3494 17.0199Z" fill="#D2002E"/>
<path d="M41.2975 14.2208C41.1149 14.1514 40.8643 14.1187 40.6306 14.1187C39.9906 14.1187 39.2549 14.3885 38.808 14.8951C38.026 15.7817 39.705 15.606 39.1427 16.2434C38.8472 16.5783 38.3254 16.7093 38.036 16.7093C37.7769 16.7093 37.5442 16.6274 37.4219 16.5702L37.0361 16.9502C37.2156 17.0115 37.4091 17.0688 37.658 17.0688C38.3691 17.0688 39.166 16.8275 39.7029 16.2187C40.5318 15.2791 38.896 15.4056 39.379 14.8583C39.6421 14.56 40.0495 14.4782 40.3339 14.4782C40.5981 14.4782 40.7078 14.5151 40.8948 14.5967L41.2975 14.2208Z" fill="#D2002E"/>
<path d="M43.8376 14.2208C43.655 14.1514 43.4044 14.1187 43.1707 14.1187C42.5306 14.1187 41.795 14.3885 41.3482 14.8951C40.5661 15.7817 42.245 15.606 41.6829 16.2434C41.3874 16.5783 40.8656 16.7093 40.5761 16.7093C40.3169 16.7093 40.0842 16.6274 39.9621 16.5702L39.5762 16.9502C39.7558 17.0115 39.9492 17.0688 40.1981 17.0688C40.9093 17.0688 41.706 16.8275 42.2429 16.2187C43.0718 15.2791 41.4362 15.4056 41.9191 14.8583C42.1822 14.56 42.5895 14.4782 42.8739 14.4782C43.1382 14.4782 43.248 14.5151 43.4348 14.5967L43.8376 14.2208Z" fill="#D2002E"/>
</svg>
