<svg width="73" height="21" viewBox="0 0 73 21" fill="none" xmlns="http://www.w3.org/2000/svg">
<path d="M0.00854492 3.90527H2.55385V9.49168H7.92206V3.90527H10.4706V17.6182H7.92206V11.9144H2.55385V17.6182H0.00854492V3.90527ZM18.5341 13.1517C18.5341 14.2996 17.5874 15.2337 16.4257 15.2337C15.2635 15.2337 14.3174 14.2996 14.3174 13.1517V7.24779H11.9036V13.1517C11.9036 15.6147 13.9323 17.6182 16.4257 17.6182C18.9185 17.6182 20.9471 15.6147 20.9471 13.1517V7.24779H18.5341V13.1517ZM27.6857 7.31695C26.4883 7.31695 25.6525 7.6602 24.8454 8.44291V3.90527H22.4237V12.3147C22.4237 15.4625 24.7275 17.6182 27.3157 17.6182C30.193 17.6182 32.7141 15.424 32.7141 12.4677C32.7141 9.54887 30.3894 7.31695 27.6857 7.31695ZM27.7458 15.405C26.1049 15.405 24.8501 14.0511 24.8501 12.4677C24.8501 10.884 26.1049 9.52971 27.7458 9.52971C29.1363 9.52971 30.3918 10.884 30.3918 12.4677C30.3918 14.0511 29.1363 15.405 27.7458 15.405ZM36.7814 7.91965C36.7814 6.71707 37.5926 6.33579 38.4805 6.33579C39.1954 6.33579 40.1414 6.86989 40.7588 7.51865L42.3418 5.68745C41.5507 4.6384 39.9482 3.9133 38.6351 3.9133C36.0087 3.9133 34.1162 5.4204 34.1162 7.91965C34.1162 12.555 39.8902 11.0857 39.8902 13.6807C39.8902 14.481 39.0988 15.1875 38.1917 15.1875C36.7622 15.1875 36.2985 14.5007 35.6422 13.7756L33.8847 15.5685C35.0053 16.9231 36.3952 17.6102 38.0561 17.6102C40.5469 17.6102 42.5553 16.084 42.5553 13.6992C42.5553 8.54883 36.7814 10.1514 36.7814 7.91965ZM48.9305 7.18258C46.3426 7.18258 44.0385 9.33703 44.0385 12.4855V20.9166H46.4601V16.3574C47.2673 17.1396 48.1027 17.4834 49.3005 17.4834C52.0041 17.4834 54.3291 15.2518 54.3291 12.3329C54.3291 9.37618 51.8073 7.18258 48.9305 7.18258ZM49.3608 15.2709C47.72 15.2709 46.4651 13.9152 46.4651 12.3329C46.4651 10.7492 47.72 9.39492 49.3608 9.39492C50.751 9.39492 52.0066 10.7492 52.0066 12.3329C52.0066 13.9152 50.751 15.2709 49.3608 15.2709ZM72.1544 15.405C70.726 15.405 70.3205 14.7948 70.3205 13.8597V9.72042H72.5407V7.62231H70.3205V4.85601L67.8689 5.9431V14.3748C67.8689 16.5307 69.3745 17.6182 71.4398 17.6182C71.7487 17.6182 72.174 17.5985 72.406 17.542L73.0047 15.3675C72.7344 15.386 72.4255 15.405 72.1544 15.405Z" fill="#45535E"/>
<path d="M65.7683 9.84228C65.304 9.05323 64.651 8.42067 63.8346 7.94446C63.2245 7.5936 62.5919 7.37092 61.879 7.27528V4.76814C62.5919 4.46912 63.0343 3.80726 63.0343 3.03512C63.0343 1.98268 62.18 1.12984 61.1155 1.12984C60.0502 1.12984 59.1809 1.98268 59.1809 3.03512C59.1809 3.80726 59.5978 4.46912 60.3107 4.76814V7.2764C59.7404 7.35782 59.1489 7.53346 58.6089 7.80333C57.5057 6.97569 53.8885 4.26052 51.7725 2.67468C51.8227 2.49594 51.8613 2.31171 51.8613 2.11734C51.8613 0.95166 50.9058 0.00683594 49.7254 0.00683594C48.545 0.00683594 47.5898 0.95166 47.5898 2.11734C47.5898 3.28287 48.546 4.22798 49.7264 4.22798C50.129 4.22798 50.5014 4.11164 50.8228 3.92036L51.2694 4.25502L57.4053 8.62251C57.081 8.91675 56.7789 9.25141 56.5372 9.62692C56.0474 10.3924 55.7482 11.2347 55.7482 12.1535V12.3452C55.7482 12.9901 55.8722 13.599 56.0835 14.171C56.2696 14.6705 56.5416 15.1246 56.8785 15.5352L54.8421 17.5519C54.5469 17.4433 54.2264 17.4211 53.9188 17.4877C53.6112 17.5544 53.3296 17.7071 53.1075 17.9277C52.9537 18.0788 52.8318 18.2586 52.7489 18.4566C52.666 18.6546 52.6237 18.8669 52.6244 19.0812C52.6246 19.5169 52.7964 19.9263 53.1083 20.2344C53.2612 20.3864 53.4432 20.5069 53.6436 20.589C53.8439 20.671 54.0588 20.713 54.2758 20.7124C54.4927 20.713 54.7077 20.671 54.9082 20.5889C55.1086 20.5069 55.2906 20.3864 55.4436 20.2344C55.5973 20.0832 55.7191 19.9035 55.8021 19.7056C55.885 19.5076 55.9275 19.2954 55.927 19.0812C55.927 18.9126 55.9006 18.7481 55.851 18.5918L57.9558 16.5121C58.2444 16.709 58.5561 16.8748 58.8912 17.0178C59.552 17.3 60.2814 17.472 61.0797 17.472H61.226C62.1086 17.472 62.9411 17.2672 63.7237 16.8483C64.5484 16.4056 65.1938 15.8002 65.6814 15.0274C66.1716 14.2524 66.4415 13.3962 66.4415 12.4542V12.4072C66.4415 11.4805 66.2244 10.6255 65.7683 9.84228ZM63.1964 14.2048C62.6251 14.832 61.9684 15.2184 61.226 15.2184H61.1037C60.6797 15.2184 60.2649 15.1026 59.8588 14.892C59.4012 14.6602 59.0533 14.3295 58.7685 13.9107C58.4743 13.4997 58.3146 13.051 58.3146 12.5752V12.4307C58.3146 11.9629 58.4054 11.5194 58.6344 11.1005C58.8792 10.6426 59.2098 10.2865 59.6495 10.0034C60.0813 9.72227 60.5424 9.58438 61.0559 9.58438H61.1037C61.5693 9.58438 62.0102 9.67509 62.4262 9.88538C62.8501 10.1096 63.1964 10.416 63.4649 10.8189C63.7257 11.222 63.8808 11.6569 63.9307 12.1305C63.9386 12.229 63.9426 12.3298 63.9426 12.4262C63.9426 13.069 63.6939 13.6644 63.1964 14.2048Z" fill="#F8761F"/>
</svg>
