<svg width="70" height="27" viewBox="0 0 70 27" fill="none" xmlns="http://www.w3.org/2000/svg">
<path d="M5.58522 1.06254C3.42784 4.30827 2.51694 7.26677 2.68474 10.4838C2.75665 11.6614 2.70871 12.638 2.61283 12.638C2.51694 12.638 2.39709 12.3508 2.34915 12.0348C2.22929 11.0295 0 14.5912 0 15.7689V16.6593H1.55811C3.06827 16.6593 3.11622 16.688 3.11622 17.3774C3.11622 17.9518 3.23607 18.0955 3.69152 18.0955C4.33873 18.0955 4.55447 18.6986 4.55447 20.5369C4.55447 21.1688 4.67432 21.8869 4.79418 22.1167C4.96197 22.4039 5.03389 21.8582 5.03389 20.3071C5.03389 18.5263 5.1058 18.0955 5.39345 18.0955C5.65713 18.0955 5.75301 18.4401 5.80095 19.3018C5.80095 19.9912 5.8489 20.6518 5.87287 20.8242C5.92081 20.9678 5.96875 21.6859 5.99272 22.4039C6.08861 24.2997 6.4242 19.2444 6.44817 15.2806C6.47214 10.57 6.95156 11.1444 6.97553 15.9412C6.9995 18.0667 7.04744 19.9337 7.07141 20.1061C7.09538 20.2497 7.1673 21.9731 7.19127 23.8976C7.26318 28.2635 7.38303 27.8039 7.62274 22.4039L7.79054 18.2391L8.82129 18.1529C9.70821 18.0667 9.82806 17.9806 9.82806 17.3486C9.82806 16.688 9.89998 16.6593 11.2663 16.6593H12.7046V15.7976C12.7046 15.2231 12.345 14.304 11.6978 13.1838C10.8109 11.6902 10.667 11.5465 10.4992 12.0636C10.1876 13.0976 10.0917 12.6667 10.2356 10.7997C10.4034 8.70294 10.0438 6.54869 9.18085 4.45189C8.53364 2.92955 6.75979 -0.00022316 6.47214 -0.00022316C6.40023 -0.00022316 5.99272 0.488073 5.58522 1.06254ZM7.55083 5.4572C8.48569 6.6923 7.14332 8.55932 5.87287 7.75507C5.08183 7.26677 4.91403 6.46252 5.36948 5.60082C5.8489 4.7104 6.92759 4.65295 7.55083 5.4572Z" fill="black"/>
<path d="M30.9464 3.15979C30.5629 3.4183 30.8026 4.02148 31.306 4.02148C31.6655 4.02148 31.7854 3.3034 31.4498 3.04489C31.3539 2.98745 31.1142 3.01617 30.9464 3.15979Z" fill="black"/>
<path d="M56.811 3.41805C56.6911 3.73401 56.5713 4.3372 56.5713 4.73932C56.5713 5.25634 56.4274 5.5723 56.0918 5.65847C55.8282 5.74464 55.6124 5.91698 55.6124 6.03187C55.6124 6.14676 55.8282 6.3191 56.0918 6.40527C56.5233 6.54889 56.5713 6.8074 56.5713 9.01909C56.5713 12.2648 57.0027 12.2361 57.0986 8.96165C57.1705 6.60634 57.1945 6.46272 57.7219 6.37655C58.393 6.26166 58.417 5.74464 57.7698 5.74464C57.5061 5.74464 57.2185 5.54357 57.1226 5.28507C56.9069 4.59571 57.4582 3.44677 58.0095 3.44677C58.2732 3.44677 58.4889 3.30316 58.4889 3.15954C58.4889 2.6138 57.0747 2.84359 56.811 3.41805Z" fill="black"/>
<path d="M22.7243 3.38929C22.3408 3.47546 22.2928 3.90631 22.2928 7.49672C22.2928 10.8286 22.3408 11.4893 22.6524 11.4893C22.9401 11.4893 23.012 10.8573 23.0599 8.12863L23.1318 4.73928L24.3304 8.04246C25.0016 9.85203 25.6248 11.3456 25.7447 11.3456C25.8645 11.3456 26.4638 9.96692 27.087 8.24353C27.7103 6.54885 28.2856 5.08396 28.3575 4.96907C28.4534 4.8829 28.5253 6.29034 28.5253 8.12863C28.5253 10.9435 28.5732 11.4893 28.8848 11.4893C29.1965 11.4893 29.2444 10.9148 29.1965 7.38183C29.1245 3.70525 29.0766 3.30312 28.6931 3.30312C28.3815 3.30312 27.95 4.16482 27.111 6.46268C26.0323 9.36373 25.4091 10.4265 25.4091 9.39246C25.4091 9.01905 23.4195 3.53291 23.2277 3.36057C23.1798 3.30312 22.9401 3.30312 22.7243 3.38929Z" fill="black"/>
<path d="M59.6156 4.22226C59.5198 4.30843 59.4478 4.65311 59.4478 4.96907C59.4478 5.2563 59.2321 5.57226 58.9684 5.65843C58.7048 5.7446 58.489 5.91694 58.489 6.06056C58.489 6.20417 58.7048 6.31907 58.9684 6.31907C59.3999 6.31907 59.4478 6.52013 59.4478 8.55948C59.4478 11.0297 59.6396 11.4893 60.6943 11.4893C61.4854 11.4893 61.6052 11.001 60.8382 10.8573C60.3348 10.7712 60.2868 10.5988 60.2149 8.53076C60.143 6.31907 60.143 6.31907 60.7662 6.31907C61.1018 6.31907 61.3655 6.17545 61.3655 6.03183C61.3655 5.85949 61.1018 5.7446 60.7662 5.7446C60.2629 5.7446 60.167 5.60098 60.167 4.8829C60.167 4.04992 59.9512 3.79142 59.6156 4.22226Z" fill="black"/>
<path d="M34.1345 5.91741C32.5045 6.86528 32.3607 10.1972 33.8948 11.2025C34.542 11.6046 36.2439 11.4897 36.3638 11.0014C36.4357 10.7717 36.172 10.7142 35.5248 10.8291C34.2783 11.0302 33.5592 10.2546 33.5592 8.67485C33.5592 7.15252 34.3982 6.20465 35.5727 6.37699C36.5556 6.5206 36.7953 5.91741 35.9083 5.63018C35.1413 5.40039 34.9735 5.42912 34.1345 5.91741Z" fill="black"/>
<path d="M38.8567 6.00311C38.2574 6.72119 38.0177 6.77864 38.2095 6.17545C38.2814 5.91694 38.2095 5.7446 37.9937 5.7446C37.7061 5.7446 37.6342 6.29034 37.6342 8.61693C37.6342 10.9722 37.7061 11.4893 37.9937 11.4893C38.2814 11.4893 38.3533 11.0584 38.3533 9.39246C38.3533 7.15204 38.7128 6.31907 39.6477 6.31907C39.8874 6.31907 40.0312 6.17545 39.9833 5.97439C39.8155 5.39992 39.3601 5.39992 38.8567 6.00311Z" fill="black"/>
<path d="M42.045 5.7446C40.5109 6.49141 40.0315 9.04778 41.1341 10.5988C41.6615 11.3456 41.9252 11.4893 42.7881 11.4893C44.1305 11.4893 45.0174 10.6276 45.2331 9.13395C45.4249 7.61161 44.9215 6.34779 43.9627 5.85949C43.0518 5.39992 42.7641 5.39992 42.045 5.7446ZM44.1065 6.95098C45.1373 8.27225 44.3462 10.9148 42.908 10.9148C42.4525 10.9148 42.045 10.6563 41.7334 10.168C40.7026 8.61693 41.4218 6.31907 42.908 6.31907C43.3155 6.31907 43.8189 6.57758 44.1065 6.95098Z" fill="black"/>
<path d="M46.911 5.91675C46.3597 6.29015 46.2398 6.51994 46.3117 7.26675C46.3836 8.04227 46.5754 8.30078 47.5343 8.87525C48.2534 9.33482 48.6609 9.76567 48.6609 10.0816C48.6609 10.7135 47.75 11.0582 46.8631 10.7997C46.4316 10.6561 46.2638 10.7423 46.2638 11.0582C46.2638 11.7476 48.4691 11.6614 48.9965 10.9433C49.7156 9.99546 49.404 9.13376 48.1096 8.38695C47.1747 7.86993 46.9589 7.61142 47.0309 7.09441C47.1028 6.54866 47.2466 6.46249 48.1335 6.46249C49.1403 6.46249 49.5238 5.9742 48.7568 5.62952C48.1815 5.37101 47.6301 5.42845 46.911 5.91675Z" fill="black"/>
<path d="M51.6333 5.71588C50.7943 6.14672 50.3389 7.18076 50.3389 8.7031C50.3389 10.5701 51.058 11.4893 52.5921 11.4893C53.4791 11.4893 53.7427 11.3456 54.2701 10.5988C55.0851 9.42118 55.133 7.55417 54.366 6.46268C53.7667 5.65843 52.4723 5.31375 51.6333 5.71588ZM53.7907 6.95098C54.0064 7.29566 54.1742 8.07119 54.1742 8.67437C54.1742 10.5988 52.736 11.5467 51.5614 10.3978C50.8662 9.76586 50.7943 7.69778 51.4176 6.89353C52.0168 6.08928 53.3113 6.118 53.7907 6.95098Z" fill="black"/>
<path d="M30.9224 8.61693C30.9224 10.9722 30.9943 11.4893 31.2819 11.4893C31.5696 11.4893 31.6415 10.9722 31.6415 8.61693C31.6415 6.26162 31.5696 5.7446 31.2819 5.7446C30.9943 5.7446 30.9224 6.26162 30.9224 8.61693Z" fill="black"/>
<path d="M23.6113 15.7406C22.9161 15.8842 22.5326 16.631 22.5326 17.7225C22.5326 18.4693 22.4367 18.6704 22.0531 18.6704C21.7895 18.6704 21.5737 18.7853 21.5737 18.9576C21.5737 19.1012 21.7895 19.2449 22.0531 19.2449C22.5086 19.2449 22.5326 19.4459 22.5326 21.8587C22.5326 23.8119 22.6045 24.4438 22.8442 24.3576C23.036 24.2714 23.1558 23.4097 23.2038 21.7438C23.2757 19.3023 23.2757 19.2449 23.851 19.2449C24.1866 19.2449 24.4502 19.1012 24.4502 18.9576C24.4502 18.7853 24.1626 18.6704 23.827 18.6704C23.2757 18.6704 23.2277 18.5842 23.2996 17.6076C23.3715 16.6598 23.4674 16.4874 24.0667 16.3725C24.618 16.2576 24.6899 16.1715 24.4263 15.913C24.2345 15.7406 23.8749 15.6544 23.6113 15.7406Z" fill="black"/>
<path d="M37.3466 16.5453C36.6274 17.0049 36.2918 17.9815 36.5555 18.9581C36.6514 19.2741 37.2986 19.9347 37.9938 20.423C38.6889 20.8826 39.4081 21.457 39.5519 21.6868C39.9834 22.3187 39.7437 23.0655 38.9766 23.5251C38.4013 23.8411 38.1616 23.8411 37.3705 23.4677C36.4836 23.0655 36.4357 23.0655 36.4357 23.5538C36.4357 24.1857 36.8911 24.4155 38.2575 24.4155C39.0725 24.4155 39.48 24.2432 39.9114 23.6974C41.0141 22.4049 40.5826 21.0262 38.641 19.8485C38.1376 19.5326 37.5863 19.1017 37.4185 18.8432C36.6754 17.7804 38.0177 16.5166 39.4081 16.9762C40.2231 17.2634 40.3909 17.1485 40.1991 16.5166C40.0073 15.9422 38.2335 15.9422 37.3466 16.5453Z" fill="black"/>
<path d="M41.7093 17.8092C41.7093 18.4698 41.6134 18.6709 41.2299 18.6709C40.9662 18.6709 40.7505 18.7858 40.7505 18.9581C40.7505 19.1017 40.9662 19.2453 41.2299 19.2453C41.6614 19.2453 41.7093 19.4464 41.7093 21.2847C41.7093 23.7549 41.973 24.4155 42.9079 24.4155C43.7708 24.4155 43.8427 23.9847 43.0277 23.7262C42.4524 23.5538 42.4285 23.4389 42.4285 21.3996C42.4285 19.3028 42.4524 19.2453 43.0277 19.2453C43.3633 19.2453 43.627 19.1017 43.627 18.9581C43.627 18.7858 43.3633 18.6709 43.0277 18.6709C42.5243 18.6709 42.4285 18.5273 42.4285 17.8092C42.4285 17.2347 42.3086 16.9475 42.0689 16.9475C41.8292 16.9475 41.7093 17.2347 41.7093 17.8092Z" fill="black"/>
<path d="M53.1914 17.1484C53.1674 17.292 53.1914 17.6079 53.2154 17.8952C53.2394 18.2111 53.0476 18.4984 52.7599 18.5845C52.1127 18.7856 52.1127 19.1303 52.736 19.3313C53.1674 19.4749 53.2154 19.7335 53.2154 21.6005C53.2154 22.8643 53.3352 23.8696 53.503 24.0707C53.8626 24.5015 54.7975 24.5302 55.0132 24.1281C55.0851 23.9558 54.9653 23.8409 54.7255 23.8409C53.9345 23.8409 53.6948 23.2377 53.6948 21.1983V19.2452H54.4139C55.3248 19.2452 55.3728 18.7281 54.4858 18.6132C53.9585 18.5558 53.7907 18.3547 53.7427 17.7228C53.6708 17.0335 53.2633 16.6026 53.1914 17.1484Z" fill="black"/>
<path d="M26.1284 18.7276C25.2894 19.2446 24.6422 20.9393 24.834 22.0595C25.2415 24.4148 27.3988 25.2478 28.7892 23.5819C29.7 22.4904 29.772 20.5372 28.957 19.3883C28.3097 18.4978 26.9913 18.2106 26.1284 18.7276ZM28.3577 19.7617C28.957 20.3936 28.909 22.5191 28.2858 23.2659C27.7584 23.8978 26.9194 23.984 26.3441 23.467C24.9778 22.2031 25.3613 19.5893 26.9674 19.1872C27.4947 19.0436 27.7344 19.1297 28.3577 19.7617Z" fill="black"/>
<path d="M32.049 18.9576C31.5216 19.4746 31.4017 19.5034 31.4017 19.13C31.4017 18.8715 31.234 18.6704 31.0422 18.6704C30.7306 18.6704 30.6826 19.1012 30.7306 21.4566C30.7785 23.3523 30.8984 24.2714 31.1141 24.3576C31.3298 24.4438 31.4017 23.9842 31.4017 22.6917C31.4017 20.5087 31.8812 19.2449 32.7441 19.2449C33.1037 19.2449 33.3194 19.1012 33.2715 18.9002C33.1037 18.3257 32.6962 18.3544 32.049 18.9576Z" fill="black"/>
<path d="M45.3769 18.6698C45.0653 18.8134 44.8255 19.1581 44.8255 19.4454C44.8255 19.8188 44.8975 19.8475 45.1132 19.589C45.6166 18.9858 46.935 19.1581 47.2466 19.8475C47.5822 20.623 47.2226 20.9677 46.096 20.9677C44.6577 20.9677 43.7948 22.8634 44.7297 23.9549C45.2091 24.5294 46.3597 24.5581 46.8391 23.9836C47.2945 23.4379 47.4623 23.4379 47.4623 24.0124C47.4623 24.2709 47.6062 24.4145 47.774 24.3283C47.9657 24.2421 48.0616 23.4953 48.0616 21.8581C48.0616 19.7039 48.0137 19.4166 47.4863 18.9283C46.887 18.3539 46.2159 18.2677 45.3769 18.6698ZM47.2226 22.6049C46.7192 23.6677 46.12 24.0698 45.6166 23.6677C45.1132 23.2943 44.9214 22.4613 45.257 22.0592C45.6166 21.6283 47.0788 21.3124 47.3425 21.5996C47.4863 21.7719 47.4384 22.1166 47.2226 22.6049Z" fill="black"/>
<path d="M50.8422 18.9285C50.2429 19.6465 50.0032 19.704 50.195 19.1008C50.2669 18.8136 50.171 18.67 49.9073 18.67C49.5478 18.67 49.4998 18.9859 49.5478 21.4561C49.5717 23.5816 49.6676 24.271 49.9073 24.271C50.1231 24.271 50.2189 23.7253 50.2429 22.3178C50.2909 20.221 50.7223 19.2444 51.5853 19.2444C51.849 19.2444 52.0168 19.1008 51.9688 18.8997C51.801 18.3253 51.3456 18.3253 50.8422 18.9285Z" fill="black"/>
<path d="M62.7078 18.9862C62.2045 19.4745 62.0846 19.5032 62.0846 19.1298C62.0846 18.8713 61.9168 18.6702 61.725 18.6702C61.4134 18.6702 61.3655 19.3309 61.3655 22.8351C61.3655 26.3394 61.4134 27 61.725 27C62.0127 27 62.0846 26.6266 62.0846 25.2479V23.5245L62.612 23.9553C63.379 24.616 64.3618 24.5298 65.1049 23.7543C65.5844 23.2372 65.7761 22.749 65.872 21.6C65.9679 20.25 65.9199 20.049 65.2488 19.2447C64.3858 18.2394 63.5948 18.1532 62.7078 18.9862ZM64.6015 19.6756C65.3446 20.5373 65.3926 22.0309 64.6974 23.0936C64.0742 24.0702 63.2112 24.0702 62.588 23.0936C61.5572 21.5139 62.2524 19.2734 63.8345 18.9862C63.9304 18.9862 64.2899 19.2734 64.6015 19.6756Z" fill="black"/>
<path d="M67.55 18.8428C67.0466 19.1588 66.8788 19.4747 66.8788 20.1066C66.8788 20.8534 67.0466 21.0545 68.0773 21.6864C68.8923 22.1747 69.2759 22.5768 69.2759 22.979C69.2759 23.697 68.2691 24.0417 67.4541 23.5822C66.9267 23.2949 66.8548 23.3236 66.9267 23.7545C67.0226 24.4726 68.6287 24.6162 69.4197 23.9843C70.4025 23.2088 70.1149 22.1173 68.7245 21.2556C67.8856 20.7098 67.5979 20.3939 67.6459 19.963C67.7178 19.5034 67.9095 19.3886 68.7485 19.3886C69.7553 19.3886 70.1388 18.9003 69.3718 18.5556C68.7965 18.2971 68.2451 18.3545 67.55 18.8428Z" fill="black"/>
<path d="M56.0199 20.5953C56.0439 21.6868 56.0678 22.7783 56.0678 23.0368C56.1158 24.3006 57.8896 24.9038 58.7766 23.9272C59.1841 23.4964 59.208 23.4964 59.208 23.9272C59.208 24.2145 59.3758 24.4155 59.5676 24.4155C59.8552 24.4155 59.9272 23.8985 59.9272 21.5432C59.9272 19.1879 59.8552 18.6709 59.5676 18.6709C59.2799 18.6709 59.208 19.073 59.208 20.6241C59.208 22.9506 58.7766 23.9272 57.8177 23.7836C56.9548 23.6687 56.5712 22.6634 56.5712 20.4517C56.5712 19.2166 56.4754 18.6709 56.2836 18.6709C56.0678 18.6709 55.9959 19.2166 56.0199 20.5953Z" fill="black"/>
</svg>
