<svg width="72" height="18" viewBox="0 0 72 18" fill="none" xmlns="http://www.w3.org/2000/svg">
<path d="M0 0.27573C0 0.826948 3.32252 7.12355 3.84713 7.54756C4.12193 7.80197 6.02051 8.58639 8.04401 9.30722C11.2416 10.4309 11.9411 10.6005 13.415 10.6217C14.9888 10.6429 15.0388 10.6641 14.1145 10.8337C13.5649 10.9185 11.7413 11.1517 10.0675 11.3213C8.39375 11.5121 6.86988 11.7241 6.64505 11.7877C6.09546 11.9573 6.14542 12.2753 6.89486 13.7382L7.5194 14.989L10.1924 15.7098C12.3158 16.2822 12.7155 16.4518 12.091 16.4942C11.6663 16.5366 11.0418 16.7911 10.717 17.0879L10.1674 17.5967H10.9668C12.016 17.5967 13.2152 17.1515 13.9646 16.473C14.714 15.7734 14.5392 15.413 13.2152 14.8194C12.3658 14.459 11.8911 14.3954 10.8919 14.4802C8.79345 14.6922 10.1424 14.2894 13.3151 13.7594C16.6626 13.2081 17.387 12.9113 18.4612 11.5969L19.2107 10.6429L14.9888 9.03161C11.3665 7.65356 10.5671 7.42036 9.36802 7.42036C8.61858 7.42036 7.99404 7.31435 7.99404 7.20835C7.99404 6.93274 10.0675 6.93274 16.2379 7.20835C19.7103 7.37796 21.2592 7.37796 21.6089 7.20835C21.8837 7.08115 22.4583 6.50873 22.9079 5.93631L23.7073 4.89748L22.9079 4.49467C20.185 3.11662 13.9146 0.402935 13.5649 0.466536C13.0403 0.551338 12.6156 1.12376 12.8155 1.54777C12.9154 1.75978 14.0395 2.18379 15.6633 2.62901C17.1372 3.03182 18.2864 3.37103 18.1615 3.37103C18.0615 3.39223 16.2129 3.01062 14.0395 2.5442C8.5936 1.39937 1.04922 0.00012207 0.199851 0.00012207C0.0749442 0.00012207 0 0.127325 0 0.27573Z" fill="#14345C"/>
<path d="M35.5984 0.657425C30.9269 1.27225 26.9549 3.49831 25.3311 6.42401C23.9321 8.98929 25.1812 11.2366 27.9791 11.2366C29.0533 11.2366 29.9776 10.9398 29.9776 10.6005C29.9776 10.4733 29.7778 10.3885 29.5279 10.3885C28.7785 10.3885 28.2289 9.68891 28.2289 8.77728C28.2289 7.14483 30.802 4.32514 33.425 3.1167C38.7461 0.657425 43.8173 2.28988 43.7923 6.46641C43.7923 8.71368 41.9437 10.8337 38.896 12.0634C37.447 12.6358 34.3494 13.3142 34.0995 13.1022C34.0496 13.0598 35.1488 11.5122 36.5727 9.68891C39.4456 5.99999 40.9444 3.71032 40.6447 3.47711C40.3199 3.18031 38.1715 3.81633 36.9974 4.53715C36.3479 4.89756 35.1987 5.97879 34.4243 6.91162C32.8005 8.81968 27.6044 17.3 27.9291 17.4696C28.2789 17.6392 30.2274 16.4943 31.5764 15.3071L32.8005 14.2259L34.9489 14.3531C37.2972 14.4803 39.0459 14.2471 40.9694 13.5474C42.0686 13.1446 42.1935 13.0174 42.4683 12.127C42.943 10.5157 44.1421 8.07766 45.3661 6.2756L46.5153 4.62195L45.9157 3.62552C45.1663 2.41708 43.5925 1.37825 41.8937 0.975435C40.145 0.551422 37.4221 0.403017 35.5984 0.657425Z" fill="#14345C"/>
<path d="M51.7865 1.71736C50.7373 1.97177 48.1642 4.00704 46.9152 5.57589C44.442 8.67119 42.5184 13.3777 42.8182 15.5826C42.9681 16.7487 43.7925 17.5967 44.8167 17.5967C45.716 17.5967 47.5896 16.4518 48.6389 15.2646L49.5882 14.1834L49.738 15.2646C49.838 15.8582 50.0628 16.473 50.2377 16.6638C51.0371 17.4907 52.9357 17.8511 53.9849 17.3635C54.3346 17.2151 54.5844 17.2151 54.7843 17.3423C54.9841 17.4907 55.234 17.4695 55.5587 17.2575C56.2082 16.8759 57.1575 16.8759 59.0811 17.3211C61.3044 17.8299 62.3537 17.5331 64.2023 15.9006L65.6012 14.6498V15.6886C65.5763 16.9607 66.1508 17.5967 67.3749 17.5967C68.9487 17.5967 70.1978 16.7275 71.322 14.8618C71.6717 14.2682 71.6967 14.0986 71.3969 13.8654C71.0971 13.6109 70.9223 13.7382 70.1978 14.671C69.1736 15.943 68.599 16.3246 68.1743 15.9642C67.8496 15.6886 68.3992 14.0138 69.6982 11.4273C70.6974 9.45561 70.5975 9.1164 69.1236 9.1164C68.0994 9.1164 68.0244 9.1588 67.4748 10.1128C66.0009 12.6993 63.6527 15.1798 62.1788 15.6886C61.5792 15.9218 61.2545 15.9006 60.3302 15.5826C59.7056 15.3918 59.206 15.1586 59.206 15.095C59.206 15.0102 59.4558 14.8194 59.7806 14.6498C60.9297 14.035 65.876 10.1552 66.1508 9.64642L66.4506 9.1164H62.9782C59.5058 9.1164 59.4808 9.1164 58.9812 9.66762C57.9819 10.7277 58.2317 11.0033 60.2802 11.0669L62.0789 11.1305L59.5807 12.7629C56.2582 14.9466 54.5095 15.731 53.1855 15.6462C52.4111 15.6038 52.0363 15.4554 51.7615 15.0738L51.3618 14.5862L52.3361 14.7134C54.5345 15.0314 56.9327 13.1657 57.1575 10.9821C57.3074 9.47682 56.7578 9.0104 55.0091 9.1588C53.4103 9.28601 52.6609 9.77362 50.3876 12.0421C46.7153 15.731 44.6418 16.3034 45.4662 13.3989C45.716 12.4449 45.816 12.3601 47.4148 11.6817C51.5617 9.85843 55.3339 5.15187 54.6094 2.67139C54.2847 1.56896 53.4853 1.29335 51.7865 1.71736ZM53.4603 3.75263C53.4353 5.55469 48.439 10.8125 46.7902 10.8125C45.9908 10.8125 49.763 5.44868 51.4618 4.15544C52.536 3.32862 53.4603 3.15901 53.4603 3.75263ZM55.4588 10.6217C55.4588 11.5121 53.2105 13.7806 52.3361 13.7806C51.7865 13.7806 51.8864 13.4413 52.7108 12.4025C53.835 11.0033 55.4588 9.96443 55.4588 10.6217Z" fill="#14345C"/>
<path d="M69.3483 5.53349C68.5989 6.29671 68.4989 7.20833 69.1485 7.69594C69.9728 8.33196 71.0221 8.09875 71.5717 7.18713C72.0713 6.38151 72.0463 5.66069 71.4967 5.23668C70.7972 4.70666 70.0728 4.81267 69.3483 5.53349Z" fill="#DC0C7C"/>
</svg>
