<svg width="77" height="9" viewBox="0 0 77 9" fill="none" xmlns="http://www.w3.org/2000/svg">
<path d="M5.93213 0.686516C5.48284 1.06299 5.11284 1.48376 5.11284 1.61663C5.11284 1.74951 4.87498 2.05955 4.61069 2.30315C4.31997 2.5689 4.02926 3.03396 3.92354 3.344C3.76497 3.89764 3.81783 3.91979 5.1657 4.07481C5.93213 4.16339 6.77785 4.38485 7.01571 4.58416C7.43857 4.8942 7.49143 4.87205 7.75572 4.34055C8.07286 3.63189 8.09929 3.23327 7.835 3.01181C7.72929 2.92323 7.67643 2.50246 7.72929 2.08169C7.80857 1.2623 7.33285 -1.43989e-07 6.96285 -1.43989e-07C6.83071 -1.43989e-07 6.38142 0.310039 5.93213 0.686516ZM7.095 1.66093C7.095 1.94882 6.88357 2.12599 6.51356 2.17028C6.06427 2.23671 5.9057 2.12599 5.9057 1.81595C5.9057 1.59449 5.98499 1.32874 6.0907 1.24016C6.43428 0.952264 7.095 1.21801 7.095 1.66093Z" fill="#6B81F5"/>
<path d="M9.71166 1.83823C9.65881 1.99325 9.63238 3.5656 9.65881 5.31511C9.73809 8.12761 9.79095 8.52623 10.1874 8.59267C10.5574 8.65911 10.6367 8.4598 10.716 7.37466L10.7953 6.09021H11.8524C12.8303 6.09021 12.9624 6.17879 13.9139 7.35251C14.5482 8.19405 15.0768 8.63696 15.4203 8.63696C15.7111 8.63696 15.9489 8.59267 15.9489 8.52623C15.9489 8.4598 15.526 7.88401 14.9975 7.21964L14.0725 6.04592L14.8653 5.3594C16.1868 4.25211 15.8696 2.5469 14.231 1.88252C13.121 1.46176 9.9231 1.41746 9.71166 1.83823ZM14.1517 2.81264C14.786 3.2777 14.7596 4.47357 14.1253 4.96078C13.7553 5.24867 13.2532 5.31511 12.2224 5.27082L10.7953 5.20438L10.716 3.8092L10.6367 2.43617H12.1431C13.1739 2.43617 13.8082 2.5469 14.1517 2.81264Z" fill="black"/>
<path d="M30.4849 5.11579C30.4849 8.37121 30.5113 8.65911 30.9606 8.59267C31.2777 8.54838 31.4363 8.28263 31.4892 7.70684C31.5685 6.88745 32.4935 5.93518 32.8106 6.33381C34.3435 8.19405 34.7928 8.63696 35.2685 8.63696C35.8764 8.63696 35.85 8.59267 34.3964 6.93174C33.8414 6.28951 33.3921 5.69158 33.3921 5.603C33.3921 5.51441 33.8942 5.00506 34.5021 4.49571C35.4007 3.72061 35.5064 3.54344 35.1099 3.54344C34.8192 3.54344 33.9206 4.11923 33.0749 4.80575L31.542 6.06806V3.80919C31.542 1.70534 31.5156 1.55032 31.0134 1.55032C30.5113 1.55032 30.4849 1.70534 30.4849 5.11579Z" fill="black"/>
<path d="M49.2495 2.03753C45.0473 3.85349 47.6109 9.58925 52.1303 8.43767C52.6588 8.30479 53.3724 7.95046 53.716 7.66257L54.2974 7.13107L53.716 6.77673C53.161 6.44455 53.0553 6.46669 52.5531 6.84317C50.3595 8.50411 47.6638 6.11236 49.1174 3.78705C49.7252 2.76834 51.4695 2.52474 52.4474 3.34413C52.8967 3.72061 53.0553 3.74276 53.4253 3.49915C53.6631 3.34413 53.901 3.21126 53.9538 3.18911C54.2446 3.03409 53.346 2.2147 52.5795 1.90466C51.3638 1.41745 50.6502 1.46174 49.2495 2.03753Z" fill="black"/>
<path d="M55.1166 5.02727L55.1959 8.52631L55.9359 8.59274L56.6495 8.65918V7.08683C56.6495 5.71379 56.7288 5.44804 57.3103 4.98298C58.0503 4.34075 58.3146 4.29646 58.8696 4.78367C59.1867 5.02727 59.2925 5.58092 59.2925 6.88752V8.65918L60.0325 8.59274C60.7461 8.52631 60.7461 8.52631 60.8254 6.64391C60.8782 4.49577 60.5875 3.76496 59.451 3.43278C58.8696 3.25561 58.526 3.32205 57.6803 3.69853L56.6495 4.16359V2.85699V1.55038H55.8567H55.0374L55.1166 5.02727Z" fill="black"/>
<path d="M43.6994 2.65751C43.6994 3.29973 43.5937 3.54333 43.3029 3.54333C43.0915 3.54333 42.9065 3.69835 42.9065 3.87551C42.9065 4.05268 43.0915 4.2077 43.3029 4.2077C43.6201 4.2077 43.6994 4.56203 43.6994 6.04578C43.6994 8.28249 44.0958 8.79184 45.6816 8.54824C46.818 8.37107 46.7916 7.90601 45.6551 7.751C44.8887 7.64027 44.8887 7.61812 44.8094 5.91291C44.7301 4.2077 44.7301 4.2077 45.4173 4.2077C45.8401 4.2077 46.078 4.07483 46.078 3.87551C46.078 3.6762 45.8401 3.54333 45.4173 3.54333C44.8358 3.54333 44.7565 3.45475 44.7565 2.65751C44.7565 1.9267 44.6773 1.77168 44.228 1.77168C43.7787 1.77168 43.6994 1.9267 43.6994 2.65751Z" fill="black"/>
<path d="M73.8285 2.54698C73.8285 3.03419 73.6699 3.38852 73.4321 3.45496C73.2206 3.54354 73.0356 3.78715 73.0356 4.0086C73.0356 4.23006 73.2206 4.42937 73.4321 4.42937C73.7492 4.42937 73.8285 4.7837 73.8285 6.31176C73.8285 8.10557 73.8549 8.21629 74.4628 8.43775C75.2293 8.74779 77 8.50419 77 8.12771C77 7.6405 76.6036 7.33046 76.075 7.37476C75.5993 7.41905 75.5464 7.26403 75.4671 5.91314C75.3878 4.5401 75.4407 4.42937 75.9428 4.42937C76.2864 4.42937 76.4714 4.27435 76.4714 3.98646C76.4714 3.69856 76.2864 3.54354 75.9693 3.54354C75.5464 3.54354 75.4407 3.36638 75.3614 2.702C75.2821 1.99334 75.1764 1.88261 74.5685 1.81617C73.8814 1.74974 73.8285 1.79403 73.8285 2.54698Z" fill="black"/>
<path d="M18.4596 3.63202C17.3231 4.05279 16.7417 4.89433 16.7417 6.11235C16.7417 6.97603 16.8738 7.24178 17.6403 7.88401C18.3539 8.48194 18.7503 8.63696 19.596 8.63696C20.9439 8.63696 22.1597 7.83972 22.5825 6.66599C23.2961 4.65073 20.7589 2.76834 18.4596 3.63202ZM21.2082 4.7836C22.0011 5.64729 21.9218 6.55526 20.9703 7.35251C20.3096 7.88401 20.0189 7.99474 19.4375 7.88401C17.0324 7.3968 17.3496 4.20781 19.8075 4.20781C20.4153 4.20781 20.8118 4.38498 21.2082 4.7836Z" fill="black"/>
<path d="M25.9919 3.47704C24.3797 3.91996 23.6133 4.73935 23.6133 5.97951C23.6133 7.6183 25.199 8.79202 27.1284 8.57056C28.397 8.41554 29.5335 7.64044 28.8991 7.30826C28.6613 7.17538 28.3706 7.21967 28.1063 7.39684C26.0976 8.8806 23.5604 6.57745 25.2255 4.78364C25.8598 4.11927 27.1284 4.00854 27.842 4.54004C28.3706 4.93866 29.1899 4.7615 29.0049 4.31858C28.8463 3.98639 27.287 3.32202 26.7319 3.34417C26.5469 3.34417 26.2034 3.41061 25.9919 3.47704Z" fill="black"/>
<path d="M38.4927 3.47736C38.1756 3.52165 37.5413 3.92027 37.092 4.34104C35.1891 6.17914 36.9334 8.90307 39.8142 8.57088C40.8713 8.46016 42.1135 7.68505 41.7699 7.37501C41.6642 7.28643 41.2149 7.39716 40.8185 7.59647C40.3956 7.79578 39.7349 7.97295 39.3649 7.97295C38.6513 7.97295 37.3563 7.10926 37.3563 6.6442C37.3563 6.51133 38.3077 6.42275 39.867 6.42275H42.3778V5.8691C42.3778 4.96113 41.6906 4.07529 40.6863 3.67667C39.7877 3.32234 39.5763 3.30019 38.4927 3.47736ZM40.6335 4.45177C41.0035 4.69538 41.3206 5.094 41.3206 5.3376C41.3206 5.71408 41.1092 5.75837 39.3385 5.75837C37.1184 5.75837 36.8277 5.51477 38.017 4.54036C38.8099 3.87598 39.7085 3.83169 40.6335 4.45177Z" fill="black"/>
<path d="M63.0191 3.65414C62.4113 3.89775 62.1998 4.09706 62.3055 4.34067C62.3848 4.53998 62.4641 4.71715 62.4641 4.76144C62.4641 4.80573 62.9398 4.67285 63.5213 4.49569C64.4727 4.18565 64.6049 4.18565 65.2392 4.51783C65.6092 4.71715 65.8999 5.04933 65.8999 5.2265C65.8999 5.5144 65.7149 5.55869 65.0013 5.44796C63.8913 5.27079 62.3584 5.758 61.962 6.40023C61.5655 6.99817 61.8562 7.90615 62.5434 8.30477C63.2834 8.74769 64.5784 8.72555 65.3449 8.28263C65.9263 7.9283 65.9792 7.9283 66.217 8.28263C66.3492 8.48194 66.7456 8.63696 67.1156 8.63696C67.7499 8.63696 67.7499 8.61482 67.5913 7.02032C67.3535 4.65071 67.0628 4.00848 66.0056 3.632C64.8956 3.23337 64.1556 3.25552 63.0191 3.65414ZM65.8206 6.5774C66.032 7.02032 64.9484 7.79542 64.2349 7.70684C63.4684 7.61825 63.072 6.99817 63.4948 6.55525C63.9706 6.06804 65.6092 6.09019 65.8206 6.5774Z" fill="black"/>
<path d="M71.0799 3.7871C70.5249 4.16358 70.3927 4.18573 70.3927 3.89783C70.3927 3.65423 70.1549 3.5435 69.5998 3.5435H68.7805L68.8598 6.02383L68.9391 8.5263L69.6791 8.59274L70.3927 8.65918V6.99824C70.3927 5.53662 70.472 5.29302 70.9742 5.00512C71.2913 4.80581 71.7671 4.65079 72.0313 4.65079C72.3749 4.65079 72.5071 4.47362 72.5071 3.98642C72.5071 3.18917 72.0842 3.12273 71.0799 3.7871Z" fill="black"/>
<path d="M4.90147 5.40373C4.90147 5.95737 4.79575 6.55531 4.66361 6.75463C4.4786 7.02038 4.37289 6.93179 4.08217 6.31171C3.68573 5.35943 3.39502 5.33729 2.84001 6.24527C2.25857 7.19754 2.33786 7.15325 1.70356 6.84321C1.25427 6.57746 1.09569 6.62175 0.514254 7.06467C-0.278616 7.68475 -0.120042 8.12767 0.752115 7.66261C1.25427 7.37471 1.41284 7.37471 1.88856 7.66261C2.39071 7.9505 2.47 7.92836 2.94572 7.37471L3.4743 6.77677L3.95002 7.61831C4.24074 8.08338 4.55789 8.482 4.71647 8.50415C4.84861 8.50415 5.13933 7.86192 5.37719 7.06467C5.58862 6.24527 5.9322 5.42587 6.14363 5.22656C6.5665 4.80579 6.54007 4.7615 5.58862 4.56218C4.90147 4.42931 4.90147 4.45145 4.90147 5.40373Z" fill="#6B81F5"/>
</svg>
