<svg width="48" height="48" viewBox="0 0 48 48" fill="none" xmlns="http://www.w3.org/2000/svg">
<path fill-rule="evenodd" clip-rule="evenodd" d="M43.0858 34.441C41.7701 36.5669 39.5942 38.1732 37.064 38.8347C37.4183 37.6535 37.6207 36.4724 37.6207 35.2441C37.6207 29.1969 33.1676 24.189 27.1964 22.7717C28.4109 21.6378 29.9796 20.8346 31.6495 20.4094C34.2303 19.748 37.0134 20.0787 39.3412 21.3543C44.2497 24.0472 45.9196 29.9055 43.0858 34.441ZM23.9578 44.8347C21.3264 44.8347 18.7963 43.8425 16.924 42.1417C18.189 41.8583 19.3529 41.3858 20.4662 40.8189C26.0325 37.7953 28.4615 31.6535 26.741 26.126C30.9917 27.2598 34.1291 30.9449 34.1291 35.2913C34.1291 40.5354 29.5748 44.8347 23.9578 44.8347ZM4.8298 34.441C3.51411 32.2677 3.15989 29.7165 3.76713 27.3543C4.67799 28.2047 5.69005 28.9606 6.80332 29.5748C8.87805 30.7087 11.2058 31.2756 13.6348 31.2756C17.3794 31.2756 20.9216 29.8583 23.5024 27.3071C24.5651 31.3228 22.7433 35.7165 18.7457 37.8898C17.2276 38.7402 15.4565 39.1654 13.6854 39.1654C10.0419 39.2126 6.65151 37.4173 4.8298 34.441ZM4.8298 13.7008C6.14548 11.5748 8.32142 9.9685 10.8516 9.30709C10.4974 10.4882 10.2949 11.6693 10.2949 12.8976C10.2949 18.8976 14.748 23.9528 20.7192 25.3701C17.5312 28.252 12.5721 28.9606 8.57443 26.7874C6.24669 25.5118 4.52618 23.4331 3.81773 20.9764C3.10929 18.5197 3.46351 15.9213 4.8298 13.7008ZM23.9578 3.35433C26.5892 3.35433 29.1193 4.34646 30.9917 6.04725C29.7266 6.33071 28.5627 6.80315 27.4494 7.37008C24.312 9.07086 22.0349 11.8583 21.0734 15.1654C20.4156 17.4331 20.4662 19.7953 21.1746 22.063C16.924 20.9291 13.7866 17.2441 13.7866 12.8976C13.7866 7.6063 18.3409 3.35433 23.9578 3.35433ZM43.0858 13.7008C44.4015 15.874 44.7557 18.4252 44.1485 20.7874C43.2376 19.937 42.2256 19.1811 41.1123 18.5669C37.9749 16.8661 34.2809 16.3937 30.7386 17.2913C28.3097 17.9055 26.1338 19.1339 24.4132 20.8346C24.0084 19.2756 24.0084 17.622 24.4638 16.063C25.1723 13.6063 26.8422 11.5276 29.2206 10.252C31.5483 8.97638 34.3315 8.64567 36.9122 9.30709C39.5436 9.92126 41.7195 11.5276 43.0858 13.7008ZM46.122 12.0472C44.3003 9.07087 41.3653 6.94488 37.8231 6.04725C37.0134 5.85827 36.1532 5.71653 35.2929 5.62205C32.7628 2.12598 28.5121 0 24.0084 0C19.3023 0 15.1529 2.22047 12.7239 5.62205C8.22021 5.95275 4.12135 8.31496 1.84421 12C0.0224906 14.9764 -0.483542 18.4252 0.477919 21.7323C0.680332 22.5354 0.983951 23.2913 1.38878 24C-0.584749 27.8268 -0.432938 32.315 1.84421 36C4.17195 39.8268 8.32142 42.0472 12.6733 42.378C15.2035 45.874 19.4541 48 24.0084 48C28.7145 48 32.864 45.7795 35.2929 42.378C39.7966 42.0472 43.8955 39.685 46.1726 36C48.5004 32.1732 48.551 27.685 46.6281 24C48.551 20.2677 48.3992 15.7795 46.122 12.0472Z" fill="#0092FF"/>
</svg>
