<svg width="66" height="24" viewBox="0 0 66 24" fill="none" xmlns="http://www.w3.org/2000/svg">
<path fill-rule="evenodd" clip-rule="evenodd" d="M66.0001 12.0357C66.0001 8.05477 63.7267 4.91357 59.3817 4.91357C55.0184 4.91357 52.3784 8.05477 52.3784 12.0046C52.3784 16.6853 55.4951 19.049 59.9684 19.049C62.1501 19.049 63.8001 18.6291 65.0467 18.0382V14.9281C63.8001 15.4568 62.3701 15.7834 60.5551 15.7834C58.7767 15.7834 57.2001 15.2546 56.9984 13.4197H65.9634C65.9634 13.2175 66.0001 12.4089 66.0001 12.0357ZM56.9434 10.5584C56.9434 8.80119 58.2084 8.07032 59.3634 8.07032C60.4817 8.07032 61.6734 8.80119 61.6734 10.5584H56.9434Z" fill="#635BFF"/>
<path fill-rule="evenodd" clip-rule="evenodd" d="M45.3015 4.91357C43.5048 4.91357 42.3498 5.62889 41.7082 6.12651L41.4698 5.16238H37.4365V23.2942L42.0198 22.47L42.0382 18.0692C42.6982 18.4736 43.6698 19.0489 45.2832 19.0489C48.5648 19.0489 51.5532 16.8097 51.5532 11.8802C51.5348 7.37054 48.5098 4.91357 45.3015 4.91357ZM44.2015 15.6278C43.1198 15.6278 42.4782 15.3013 42.0382 14.897L42.0198 9.12774C42.4965 8.67678 43.1565 8.36577 44.2015 8.36577C45.8698 8.36577 47.0248 9.95191 47.0248 11.989C47.0248 14.0728 45.8882 15.6278 44.2015 15.6278Z" fill="#635BFF"/>
<path fill-rule="evenodd" clip-rule="evenodd" d="M31.1299 3.99649L35.7316 3.15676V0L31.1299 0.824179V3.99649Z" fill="#635BFF"/>
<path d="M35.7316 5.17822H31.1299V18.7848H35.7316V5.17822Z" fill="#635BFF"/>
<path fill-rule="evenodd" clip-rule="evenodd" d="M26.1981 6.32904L25.9048 5.17832H21.9448V18.7849H26.5281V9.56353C27.6098 8.36615 29.4431 8.58385 30.0115 8.75491V5.17832C29.4248 4.99171 27.2798 4.6496 26.1981 6.32904Z" fill="#635BFF"/>
<path fill-rule="evenodd" clip-rule="evenodd" d="M17.0317 1.80371L12.5584 2.61233L12.54 15.0682C12.54 17.3697 14.575 19.0647 17.2884 19.0647C18.7917 19.0647 19.8917 18.8314 20.4967 18.5515V15.3948C19.91 15.5969 17.0134 16.3123 17.0134 14.0108V8.4904H20.4967V5.17816H17.0134L17.0317 1.80371Z" fill="#635BFF"/>
<path fill-rule="evenodd" clip-rule="evenodd" d="M4.63833 9.12775C4.63833 8.52129 5.225 8.28803 6.19666 8.28803C7.59 8.28803 9.35 8.64569 10.7433 9.28326V5.6289C9.22166 5.11573 7.71833 4.91357 6.19666 4.91357C2.475 4.91357 0 6.56193 0 9.31436C0 13.6063 6.96666 12.9221 6.96666 14.7726C6.96666 15.4879 6.23333 15.7212 5.20667 15.7212C3.685 15.7212 1.74167 15.1924 0.201666 14.4771V18.1781C1.90667 18.8002 3.63 19.0645 5.20667 19.0645C9.02 19.0645 11.6417 17.4628 11.6417 14.6793C11.6233 10.0452 4.63833 10.8694 4.63833 9.12775Z" fill="#635BFF"/>
</svg>
