<svg width="69" height="22" viewBox="0 0 69 22" fill="none" xmlns="http://www.w3.org/2000/svg">
<path d="M32.6782 12.3149C32.6782 13.8092 31.9718 14.4414 30.9305 14.4414C29.8892 14.4414 29.1814 13.8092 29.1814 12.3149V9.231C29.1817 9.15286 29.1502 9.07816 29.0946 9.02494C29.0391 8.97171 28.9645 8.94478 28.8888 8.95064L26.6375 9.15671C26.4973 9.17048 26.3905 9.29205 26.3911 9.43706V12.3149C26.3911 15.5137 28.2137 17.123 30.9291 17.123C33.6446 17.123 35.4672 15.4955 35.4672 12.3149V8.67029C35.4674 8.59215 35.4359 8.51746 35.3803 8.46423C35.3248 8.41101 35.2502 8.38408 35.1745 8.38994L32.9232 8.5932C32.783 8.60697 32.6762 8.72855 32.6768 8.87355L32.6784 12.3149L32.6782 12.3149ZM50.2709 12.3149C50.2709 13.8092 49.5644 14.4414 48.5232 14.4414C47.4819 14.4414 46.7741 13.8092 46.7741 12.3149V7.6456C46.7743 7.56745 46.7429 7.49276 46.6873 7.43953C46.6318 7.38631 46.5571 7.35938 46.4815 7.36525L44.2301 7.5685C44.09 7.58228 43.9831 7.70385 43.9838 7.84886V12.3149C43.9838 15.5137 45.8063 17.123 48.5218 17.123C51.2373 17.123 53.0598 15.4955 53.0598 12.3149V7.07928C53.06 7.00114 53.0286 6.92645 52.973 6.87322C52.9175 6.82 52.8429 6.79307 52.7672 6.79893L50.5159 7.00079C50.3757 7.01456 50.2689 7.13613 50.2695 7.28114L50.2711 12.3149L50.2709 12.3149ZM54.8075 13.9998V16.5959C54.8075 16.7507 54.9294 16.8762 55.0798 16.8762H60.2031C60.3534 16.8762 60.4753 16.7507 60.4753 16.5959V14.2774C60.4753 14.1225 60.3534 13.997 60.2031 13.997H57.5979V6.66997C57.5981 6.59182 57.5666 6.51713 57.511 6.46391C57.4555 6.41068 57.3809 6.38375 57.3052 6.38962L55.0539 6.59287C54.9137 6.60665 54.8069 6.72822 54.8075 6.87323V13.9998V13.9998ZM37.2149 13.9998V16.5959C37.2149 16.7507 37.3367 16.8762 37.4871 16.8762H42.6131C42.7635 16.8762 42.8853 16.7507 42.8853 16.5959V14.2774C42.8853 14.1225 42.7635 13.997 42.6131 13.997H40.0052V8.24976C40.0054 8.17161 39.9739 8.09692 39.9184 8.04369C39.8628 7.99047 39.7882 7.96354 39.7125 7.96941L37.4612 8.17266C37.3211 8.18644 37.2142 8.30801 37.2149 8.45302V13.9998ZM69.0001 7.97081V5.64247C69.0003 5.56433 68.9688 5.48963 68.9133 5.43641C68.8577 5.38318 68.7831 5.35625 68.7074 5.36212L62.3183 5.93825C62.1781 5.95202 62.0713 6.07359 62.0719 6.2186V16.5917C62.0719 16.7465 62.1938 16.872 62.3441 16.872H68.7374C68.8877 16.872 69.0096 16.7465 69.0096 16.5917V14.2774C69.0096 14.1225 68.8877 13.997 68.7374 13.997H64.8636V12.441H67.2156C67.366 12.441 67.4879 12.3155 67.4879 12.1607V10.2249C67.4879 10.07 67.366 9.9445 67.2156 9.9445H64.8636V8.5974L68.7551 8.24696C68.8932 8.23267 68.9987 8.11372 69.0001 7.97081V7.97081Z" fill="black"/>
<path d="M15.289 17.1246C13.3895 17.1246 11.7422 16.0157 10.9222 14.3925C10.872 14.2909 10.7916 14.24 10.6809 14.24C10.5702 14.24 10.4898 14.2909 10.4396 14.3925C9.6198 16.0157 7.97234 17.1246 6.07284 17.1246C3.23873 17.1246 0.964345 14.6568 1.16519 11.6939C1.33321 9.21625 3.26854 7.20291 5.67259 7.00701C7.78006 6.8356 9.63438 8.03319 10.4899 9.82762C10.1129 10.2707 9.88246 10.8491 9.88246 11.4846C9.88246 12.1826 10.1597 12.8128 10.6048 13.2692C10.6555 13.3204 10.7063 13.3204 10.757 13.2692C11.2023 12.8128 11.4794 12.1826 11.4794 11.4844C11.4794 10.8491 11.2489 10.2707 10.8719 9.82745C11.7274 8.03336 13.5819 6.8356 15.6892 7.00718C18.0934 7.20291 20.0286 9.21625 20.1965 11.694C20.3975 14.6568 18.1231 17.1246 15.2888 17.1246" fill="white"/>
<path d="M15.289 17.1246C13.3895 17.1246 11.7422 16.0156 10.9222 14.3924C10.8721 14.2908 10.7917 14.24 10.681 14.24C10.5703 14.24 10.4898 14.2908 10.4397 14.3924C9.61986 16.0156 7.9724 17.1246 6.07291 17.1246C3.2388 17.1246 0.964411 14.6567 1.16525 11.6938C1.33328 9.21618 3.2686 7.20284 5.67265 7.00694C7.78013 6.83553 9.63445 8.03312 10.49 9.82754C10.113 10.2706 9.88252 10.849 9.88252 11.4845C9.88252 12.1826 10.1598 12.8127 10.6049 13.2691C10.6556 13.3203 10.7063 13.3203 10.7571 13.2691C11.2023 12.8127 11.4794 12.1826 11.4794 11.4843C11.4794 10.849 11.2489 10.2706 10.872 9.82738C11.7275 8.03328 13.582 6.83553 15.6893 7.0071C18.0935 7.20284 20.0287 9.21618 20.1965 11.694C20.3975 14.6567 18.1231 17.1246 15.2889 17.1246H15.289ZM21.2316 4.64C21.1447 4.55028 21.0397 4.50542 20.9166 4.50542C20.7935 4.50542 20.6885 4.55028 20.6015 4.64L19.87 5.39323C18.0087 2.165 14.5911 0 10.681 0C6.77085 0 3.35341 2.165 1.49195 5.39323L0.760561 4.64C0.673599 4.55024 0.568556 4.50545 0.445431 4.50565C0.322325 4.50547 0.217255 4.55021 0.130222 4.63987C0.0431883 4.72954 -0.000218688 4.83776 8.28407e-07 4.96454L8.28407e-07 10.9998C8.28407e-07 17.0751 4.78195 22 10.681 22C16.58 22 21.3621 17.0751 21.3621 11V4.96454C21.3621 4.84733 21.3185 4.72963 21.2316 4.64" fill="black"/>
<path d="M5.8976 8.1084C6.97076 8.21451 7.81406 9.14241 7.8212 10.2758C7.8288 11.4868 6.88199 12.4756 5.70596 12.4838C4.52977 12.4919 3.56979 11.5173 3.56234 10.306C3.55442 9.16265 4.39931 8.22235 5.48277 8.11362L5.48308 8.11003C3.85069 8.22137 2.56433 9.62187 2.57526 11.329C2.58699 13.1018 3.99208 14.5288 5.71261 14.5169C7.4341 14.5048 8.81937 13.0584 8.80812 11.2852C8.79702 9.59232 7.51288 8.21712 5.8976 8.1084" fill="#18A5D6"/>
<path d="M6.15659 8.50428C6.34364 8.68695 6.46728 8.86881 6.46553 9.16625C6.46395 9.59494 6.11173 9.94331 5.6804 9.94527C5.26874 9.9425 4.92095 9.58253 4.91842 9.15923C4.91652 8.81314 5.1107 8.62133 5.21516 8.51832L5.26113 8.47228C5.37891 8.3554 5.47164 8.26202 5.48258 8.1133C4.39928 8.22219 3.55423 9.16266 3.56231 10.3057C3.56976 11.517 4.52974 12.4921 5.70593 12.4836C6.88212 12.4755 7.82877 11.4868 7.82116 10.2758C7.81387 9.14209 6.97057 8.21435 5.89757 8.10807L5.88061 8.10742C5.89171 8.23949 6.02581 8.38168 6.15643 8.50428" fill="#18A5D6"/>
<path d="M6.15659 8.50428C6.34364 8.68695 6.46728 8.86881 6.46553 9.16625C6.46395 9.59494 6.11173 9.94331 5.6804 9.94527C5.26874 9.9425 4.92095 9.58253 4.91842 9.15923C4.91652 8.81314 5.1107 8.62133 5.21516 8.51832L5.26113 8.47228C5.37891 8.3554 5.47164 8.26202 5.48258 8.1133C4.39928 8.22219 3.55423 9.16266 3.56231 10.3057C3.56976 11.517 4.52974 12.4921 5.70593 12.4836C6.88212 12.4755 7.82877 11.4868 7.82116 10.2758C7.81387 9.14209 6.97057 8.21435 5.89757 8.10807L5.88061 8.10742C5.89171 8.23949 6.02581 8.38168 6.15643 8.50428" fill="#004E69"/>
<path d="M15.8593 8.1084L15.8596 8.11134C16.9526 8.21059 17.8076 9.15564 17.7997 10.3059C17.7921 11.5172 16.8321 12.4921 15.6559 12.4836C14.4797 12.4755 13.5332 11.4867 13.5407 10.2757C13.548 9.14323 14.3899 8.21614 15.4618 8.10856C13.8477 8.21843 12.5649 9.5933 12.5538 11.285C12.5427 13.0582 13.9276 14.5046 15.6493 14.5167C17.3698 14.5286 18.7751 13.1017 18.7868 11.3288C18.7979 9.61469 17.5009 8.20994 15.8593 8.1084" fill="#F01446"/>
<path d="M16.135 8.5046C16.3221 8.68711 16.4455 8.86897 16.444 9.16657C16.4424 9.5951 16.0903 9.94363 15.6588 9.94559C15.247 9.94265 14.8995 9.58286 14.8968 9.15972C14.8951 8.81363 15.0891 8.62165 15.1934 8.51864L15.2397 8.47244C15.3586 8.35425 15.4524 8.26038 15.4616 8.10889C14.3899 8.2163 13.5479 9.14355 13.5406 10.276C13.5331 11.487 14.4796 12.4756 15.656 12.4839C16.8322 12.4923 17.792 11.5175 17.7994 10.3062C17.8075 9.15596 16.9525 8.21075 15.8597 8.1115C15.8728 8.24242 16.0053 8.38331 16.135 8.5046Z" fill="#F01446"/>
<path d="M16.135 8.5046C16.3221 8.68711 16.4455 8.86897 16.444 9.16657C16.4424 9.5951 16.0903 9.94363 15.6588 9.94559C15.247 9.94265 14.8995 9.58286 14.8968 9.15972C14.8951 8.81363 15.0891 8.62165 15.1934 8.51864L15.2397 8.47244C15.3586 8.35425 15.4524 8.26038 15.4616 8.10889C14.3899 8.2163 13.5479 9.14355 13.5406 10.276C13.5331 11.487 14.4796 12.4756 15.656 12.4839C16.8322 12.4923 17.792 11.5175 17.7994 10.3062C17.8075 9.15596 16.9525 8.21075 15.8597 8.1115C15.8728 8.24242 16.0053 8.38331 16.135 8.5046Z" fill="#8B0020"/>
</svg>
